<svg width="322" height="307" viewBox="0 0 322 307" fill="none" xmlns="http://www.w3.org/2000/svg">
<path d="M208.29 139.54L228.64 87.53C234.74 71.94 241.62 56.66 249.37 41.81C257.97 25.35 262.07 0.5 195.89 0.5C121.89 0.5 128.45 26.03 137.73 41.87C144.57 53.54 150.55 65.69 156.05 78.05L183.69 140.2C184.09 141.09 184.55 141.96 185.14 142.74C189.91 149.01 198.95 149.71 204.67 144.83C206.32 143.42 207.51 141.56 208.3 139.55L208.29 139.54Z" fill="#CCCCCC"/>
<path d="M244.01 69.58C244.01 89.7 222.11 106.01 195.09 106.01C168.07 106.01 146.17 89.7 146.17 69.58C146.17 49.46 168.07 42.51 195.09 42.51C222.11 42.51 244.01 49.46 244.01 69.58Z" fill="#528F85"/>
<path d="M195.09 57.51C136.88 57.51 87.8601 111.43 73.1201 171.45C81.3901 177.38 87.9101 185.67 91.5901 195.47C121.5 196.3 146.49 218.99 150.06 248.91C151.72 262.8 148.51 276.16 141.81 287.3C158 290.72 176.05 292.17 195.08 292.17C264.94 292.17 321.58 272.64 321.58 207.84C321.58 143.04 264.94 57.51 195.08 57.51H195.09Z" fill="#CCCCCC"/>
<path d="M228.3 157.91L228.17 158.85L227.9 159.52L227.5 159.92L226.7 160.05L223.89 160.18H221.88L219.87 160.05H216.92L214.11 160.18L212.1 160.31H210.09L207.14 160.04L206.34 159.77L205.67 159.5L205.13 158.96L204.86 158.16L204.59 155.35L205.39 151.6V148.79L205.12 148.39H203.91L203.24 148.26L200.7 147.86L198.02 147.73L195.34 147.86H192.53L190.52 147.73H188.24L185.96 147.86L183.82 148.53L181.81 149.74L180.34 151.21L179.27 153.22L178.87 155.5L179.27 158.04L180.61 160.18L182.62 161.79L185.16 163L187.44 163.54L189.85 163.81L195.47 164.35L197.75 164.75L200.03 165.42L202.17 165.96L204.45 166.5L206.86 166.9L209.14 167.17L211.42 167.57L213.7 168.11L215.98 169.05L217.99 169.99L222.01 172.27L224.02 173.61L225.76 175.08L227.5 176.69L228.97 178.3L230.44 180.18L231.91 181.92L233.12 183.93L234.19 186.21L234.59 188.35L234.86 190.63V195.59L234.73 198L234.19 200.28L233.65 202.42L232.98 204.43L232.31 206.84L230.7 211.13L229.49 213.14L228.02 214.75L226.28 216.36L224.4 217.83L222.39 219.17L220.51 220.24L216.22 222.12L213.94 222.92L211.8 223.86L209.79 224.8L207.51 225.6L205.23 226.27L204.16 226.54L203.89 226.94L203.76 227.48L203.63 230.02V232.83L203.23 235.37L203.1 236.31L202.83 237.11L202.43 237.65L201.49 237.92L198.95 238.32H197.07L195.19 238.19L189.83 237.92L187.95 237.79L186.21 237.39L183.67 236.99L182.73 236.86L181.93 236.59L181.39 236.32L181.12 235.52L180.85 232.84V230.96L181.12 229.22L180.99 226.54L180.86 226L180.73 225.87H180.33L179.79 225.74L174.7 225.2L172.29 224.8L169.88 224.26L167.6 223.32L165.32 222.25L163.18 220.91L160.9 219.7L156.61 217.29L154.47 215.95L152.33 214.34L151.66 213.67L151.39 213.27L151.26 212.73L151.13 209.52L151.4 205.23L151.53 202.15V198.94L151.66 196.8L151.93 194.79L152.33 191.71L152.46 190.64L152.59 189.84L152.99 189.3L153.79 188.9L156.6 188.5L158.61 188.63L160.62 188.9L163.43 189.03H166.38L168.39 189.16L173.35 189.83L174.15 190.1L174.55 190.37L174.82 190.77L174.95 191.57L175.35 193.85L175.48 195.46V196.93L175.75 199.21L176.02 199.88L176.29 200.28L176.69 200.41L177.36 200.81L179.23 201.48L180.97 202.28L182.71 202.82L184.59 203.22L188.61 203.76H195.04L197.58 203.49L199.99 203.09L202 202.42L204.41 201.08L206.02 199.34L207.09 197.33L207.36 195.05L206.96 193.04L205.75 191.3L203.74 189.96L200.93 188.75L198.92 188.08L194.23 186.61L191.42 186.21L189.01 185.94L186.73 185.81L182.04 185.27L177.49 184.2L172.94 182.86L170.66 182.06L168.38 181.39L166.24 180.59L164.23 179.52L162.22 178.18L160.48 176.57L158.87 174.96L157.4 173.08L155.93 171.34L153.52 167.32L152.58 164.91L152.04 162.77L151.64 160.49L151.24 158.08L151.11 155.54L151.38 152.73L152.18 149.92L153.12 147.38L154.19 144.97L155.4 142.56L156.74 140.15L158.48 138.01L160.36 136.14L162.37 134.26L164.51 132.52L166.79 131.05L169.2 129.71L171.74 128.64L174.42 127.84L177.1 127.17L179.78 126.63L180.45 126.23L180.99 125.83L181.12 125.43L181.25 124.63L181.52 121.68L181.25 117.66L181.65 114.71L181.92 114.17L182.32 113.9L182.72 114.03H192.36L195.04 113.9L197.05 113.63H198.93L201.61 114.03L202.55 114.3L203.09 114.84L203.49 115.51L203.62 116.45L203.49 118.33V121.95L203.36 122.62L203.23 123.16L202.96 123.56V124.23L203.09 124.77L203.63 125.31L204.17 125.58L206.31 126.12L208.19 126.79L210.2 127.59L212.34 128.39L214.35 129.06L216.36 130L218.37 130.8L220.38 131.87L222.26 132.81L224.27 133.88L226.15 134.95L227.89 136.29L228.16 136.42H228.43L228.7 136.55V136.82L228.97 140.03V142.17L228.84 144.31V152.75L228.71 154.89L228.31 157.97L228.3 157.91Z" fill="#528F85"/>
<path d="M140.14 250.1C136.83 222.43 111.81 202.66 84.16 205.78C80.38 186.34 63.27 171.67 42.72 171.67C19.4 171.67 0.5 190.57 0.5 213.89C0.5 237.21 17.52 254.15 39.18 255.95C39.18 257.99 39.28 260.05 39.53 262.13C42.85 289.91 68.07 309.74 95.85 306.42C123.63 303.1 143.46 277.88 140.14 250.1Z" fill="#FAD776"/>
<path d="M42.7199 247.22C61.1331 247.22 76.0599 232.293 76.0599 213.88C76.0599 195.467 61.1331 180.54 42.7199 180.54C24.3067 180.54 9.37988 195.467 9.37988 213.88C9.37988 232.293 24.3067 247.22 42.7199 247.22Z" fill="#E0A962"/>
<path d="M52.9378 175.164L3.56763 224.534L10.2356 231.202L59.6058 181.832L52.9378 175.164Z" fill="#FAD776"/>
<path d="M65.9163 184.027L12.8762 237.067L25.1587 249.35L78.1988 196.31L65.9163 184.027Z" fill="#FAD776"/>
<path d="M89.8301 296.12C111.927 296.12 129.84 278.207 129.84 256.11C129.84 234.013 111.927 216.1 89.8301 216.1C67.7332 216.1 49.8201 234.013 49.8201 256.11C49.8201 278.207 67.7332 296.12 89.8301 296.12Z" fill="#E0A962"/>
<path d="M125.621 231.415L73.8335 297.272L82.7318 304.269L134.519 238.412L125.621 231.415Z" fill="#FAD776"/>
<path d="M105.72 211.334L50.0884 282.08L66.478 294.968L122.11 224.222L105.72 211.334Z" fill="#FAD776"/>
</svg>
