<svg width="285" height="293" viewBox="0 0 285 293" fill="none" xmlns="http://www.w3.org/2000/svg">
<path d="M171.47 139.54L191.82 87.53C197.92 71.94 204.8 56.66 212.55 41.81C221.15 25.35 225.25 0.5 159.07 0.5C85.07 0.5 91.63 26.03 100.91 41.87C107.75 53.54 113.73 65.69 119.23 78.05L146.87 140.2C147.27 141.09 147.73 141.96 148.32 142.74C153.09 149.01 162.13 149.71 167.85 144.83C169.5 143.42 170.69 141.56 171.48 139.55L171.47 139.54Z" fill="#DAB394"/>
<path d="M207.19 69.58C207.19 89.7 185.29 106.01 158.27 106.01C131.25 106.01 109.35 89.7 109.35 69.58C109.35 49.46 131.25 42.51 158.27 42.51C185.29 42.51 207.19 49.46 207.19 69.58Z" fill="#528F85"/>
<path d="M158.27 57.51C100.46 57.51 51.7099 110.69 36.6099 170.21C41.1899 169.1 45.9699 168.5 50.8799 168.5C84.3299 168.5 111.54 195.71 111.54 229.16C111.54 250.97 99.9699 270.12 82.6499 280.81C103.74 288.96 129.91 292.18 158.26 292.18C228.12 292.18 284.76 272.65 284.76 207.85C284.76 143.05 228.12 57.52 158.26 57.52L158.27 57.51Z" fill="#DAB394"/>
<path d="M191.49 157.91L191.36 158.85L191.09 159.52L190.69 159.92L189.89 160.05L187.08 160.18H185.07L183.06 160.05H180.11L177.3 160.18L175.29 160.31H173.28L170.33 160.04L169.53 159.77L168.86 159.5L168.32 158.96L168.05 158.16L167.78 155.35L168.58 151.6V148.79L168.31 148.39H167.1L166.43 148.26L163.89 147.86L161.21 147.73L158.53 147.86H155.72L153.71 147.73H151.43L149.15 147.86L147.01 148.53L145 149.74L143.53 151.21L142.46 153.22L142.06 155.5L142.46 158.04L143.8 160.18L145.81 161.79L148.35 163L150.63 163.54L153.04 163.81L158.66 164.35L160.94 164.75L163.22 165.42L165.36 165.96L167.64 166.5L170.05 166.9L172.33 167.17L174.61 167.57L176.89 168.11L179.17 169.05L181.18 169.99L185.2 172.27L187.21 173.61L188.95 175.08L190.69 176.69L192.16 178.3L193.63 180.18L195.1 181.92L196.31 183.93L197.38 186.21L197.78 188.35L198.05 190.63V195.59L197.92 198L197.38 200.28L196.84 202.42L196.17 204.43L195.5 206.84L193.89 211.13L192.68 213.14L191.21 214.75L189.47 216.36L187.59 217.83L185.58 219.17L183.7 220.24L179.41 222.12L177.13 222.92L174.99 223.86L172.98 224.8L170.7 225.6L168.42 226.27L167.35 226.54L167.08 226.94L166.95 227.48L166.82 230.02V232.83L166.42 235.37L166.29 236.31L166.02 237.11L165.62 237.65L164.68 237.92L162.14 238.32H160.26L158.38 238.19L153.02 237.92L151.14 237.79L149.4 237.39L146.86 236.99L145.92 236.86L145.12 236.59L144.58 236.32L144.31 235.52L144.04 232.84V230.96L144.31 229.22L144.18 226.54L144.05 226L143.92 225.87H143.52L142.98 225.74L137.89 225.2L135.48 224.8L133.07 224.26L130.79 223.32L128.51 222.25L126.37 220.91L124.09 219.7L119.8 217.29L117.66 215.95L115.52 214.34L114.85 213.67L114.58 213.27L114.45 212.73L114.32 209.52L114.59 205.23L114.72 202.15V198.94L114.85 196.8L115.12 194.79L115.52 191.71L115.65 190.64L115.78 189.84L116.18 189.3L116.98 188.9L119.79 188.5L121.8 188.63L123.81 188.9L126.62 189.03H129.57L131.58 189.16L136.54 189.83L137.34 190.1L137.74 190.37L138.01 190.77L138.14 191.57L138.54 193.85L138.67 195.46V196.93L138.94 199.21L139.21 199.88L139.48 200.28L139.88 200.41L140.55 200.81L142.42 201.48L144.16 202.28L145.9 202.82L147.78 203.22L151.8 203.76H158.23L160.77 203.49L163.18 203.09L165.19 202.42L167.6 201.08L169.21 199.34L170.28 197.33L170.55 195.05L170.15 193.04L168.94 191.3L166.93 189.96L164.12 188.75L162.11 188.08L157.42 186.61L154.61 186.21L152.2 185.94L149.92 185.81L145.23 185.27L140.68 184.2L136.13 182.86L133.85 182.06L131.57 181.39L129.43 180.59L127.42 179.52L125.41 178.18L123.67 176.57L122.06 174.96L120.59 173.08L119.12 171.34L116.71 167.32L115.77 164.91L115.23 162.77L114.83 160.49L114.43 158.08L114.3 155.54L114.57 152.73L115.37 149.92L116.31 147.38L117.38 144.97L118.59 142.56L119.93 140.15L121.67 138.01L123.55 136.14L125.56 134.26L127.7 132.52L129.98 131.05L132.39 129.71L134.93 128.64L137.61 127.84L140.29 127.17L142.97 126.63L143.64 126.23L144.18 125.83L144.31 125.43L144.44 124.63L144.71 121.68L144.44 117.66L144.84 114.71L145.11 114.17L145.51 113.9L145.91 114.03H155.55L158.23 113.9L160.24 113.63H162.12L164.8 114.03L165.74 114.3L166.28 114.84L166.68 115.51L166.81 116.45L166.68 118.33V121.95L166.55 122.62L166.42 123.16L166.15 123.56V124.23L166.28 124.77L166.82 125.31L167.36 125.58L169.5 126.12L171.38 126.79L173.39 127.59L175.53 128.39L177.54 129.06L179.55 130L181.56 130.8L183.57 131.87L185.45 132.81L187.46 133.88L189.34 134.95L191.08 136.29L191.35 136.42H191.62L191.89 136.55V136.82L192.16 140.03V142.17L192.03 144.31V152.75L191.9 154.89L191.5 157.97L191.49 157.91Z" fill="#528F85"/>
<path d="M50.88 279.82C78.8587 279.82 101.54 257.139 101.54 229.16C101.54 201.181 78.8587 178.5 50.88 178.5C22.9012 178.5 0.219971 201.181 0.219971 229.16C0.219971 257.139 22.9012 279.82 50.88 279.82Z" fill="#FAD776"/>
<path d="M50.8799 269.17C72.9768 269.17 90.8899 251.257 90.8899 229.16C90.8899 207.063 72.9768 189.15 50.8799 189.15C28.783 189.15 10.8699 207.063 10.8699 229.16C10.8699 251.257 28.783 269.17 50.8799 269.17Z" fill="#E0A962"/>
<path d="M63.1372 182.694L3.89575 241.935L11.9002 249.94L71.1416 190.698L63.1372 182.694Z" fill="#FAD776"/>
<path d="M78.7026 193.341L15.063 256.981L29.8062 271.724L93.4458 208.085L78.7026 193.341Z" fill="#FAD776"/>
</svg>
