<svg width="332" height="341" viewBox="0 0 332 341" fill="none" xmlns="http://www.w3.org/2000/svg">
<path d="M218.63 139.54L238.98 87.53C245.08 71.94 251.96 56.66 259.71 41.81C268.31 25.35 272.41 0.5 206.23 0.5C132.23 0.5 138.79 26.03 148.07 41.87C154.91 53.54 160.89 65.69 166.39 78.05L194.03 140.2C194.43 141.09 194.89 141.96 195.48 142.74C200.25 149.01 209.29 149.71 215.01 144.83C216.66 143.42 217.85 141.56 218.64 139.55L218.63 139.54Z" fill="#FAD776"/>
<path d="M254.35 69.58C254.35 89.7 232.45 106.01 205.43 106.01C178.41 106.01 156.51 89.7 156.51 69.58C156.51 49.46 178.41 42.51 205.43 42.51C232.45 42.51 254.35 49.46 254.35 69.58Z" fill="#4C956C"/>
<path d="M205.43 57.51C144.55 57.51 93.7199 116.49 81.6499 179.74L170.19 268.28C176.22 274.31 177.12 283.55 172.91 290.55C183.29 291.67 194.18 292.18 205.42 292.18C275.28 292.18 331.92 272.65 331.92 207.85C331.92 143.05 275.28 57.52 205.42 57.52L205.43 57.51Z" fill="#FAD776"/>
<path d="M238.65 157.91L238.52 158.85L238.25 159.52L237.85 159.92L237.05 160.05L234.24 160.18H232.23L230.22 160.05H227.27L224.46 160.18L222.45 160.31H220.44L217.49 160.04L216.69 159.77L216.02 159.5L215.48 158.96L215.21 158.16L214.94 155.35L215.74 151.6V148.79L215.47 148.39H214.26L213.59 148.26L211.05 147.86L208.37 147.73L205.69 147.86H202.88L200.87 147.73H198.59L196.31 147.86L194.17 148.53L192.16 149.74L190.69 151.21L189.62 153.22L189.22 155.5L189.62 158.04L190.96 160.18L192.97 161.79L195.51 163L197.79 163.54L200.2 163.81L205.82 164.35L208.1 164.75L210.38 165.42L212.52 165.96L214.8 166.5L217.21 166.9L219.49 167.17L221.77 167.57L224.05 168.11L226.33 169.05L228.34 169.99L232.36 172.27L234.37 173.61L236.11 175.08L237.85 176.69L239.32 178.3L240.79 180.18L242.26 181.92L243.47 183.93L244.54 186.21L244.94 188.35L245.21 190.63V195.59L245.08 198L244.54 200.28L244 202.42L243.33 204.43L242.66 206.84L241.05 211.13L239.84 213.14L238.37 214.75L236.63 216.36L234.75 217.83L232.74 219.17L230.86 220.24L226.57 222.12L224.29 222.92L222.15 223.86L220.14 224.8L217.86 225.6L215.58 226.27L214.51 226.54L214.24 226.94L214.11 227.48L213.98 230.02V232.83L213.58 235.37L213.45 236.31L213.18 237.11L212.78 237.65L211.84 237.92L209.3 238.32H207.42L205.54 238.19L200.18 237.92L198.3 237.79L196.56 237.39L194.02 236.99L193.08 236.86L192.28 236.59L191.74 236.32L191.47 235.52L191.2 232.84V230.96L191.47 229.22L191.34 226.54L191.21 226L191.08 225.87H190.68L190.14 225.74L185.05 225.2L182.64 224.8L180.23 224.26L177.95 223.32L175.67 222.25L173.53 220.91L171.25 219.7L166.96 217.29L164.82 215.95L162.68 214.34L162.01 213.67L161.74 213.27L161.61 212.73L161.48 209.52L161.75 205.23L161.88 202.15V198.94L162.01 196.8L162.28 194.79L162.68 191.71L162.81 190.64L162.94 189.84L163.34 189.3L164.14 188.9L166.95 188.5L168.96 188.63L170.97 188.9L173.78 189.03H176.73L178.74 189.16L183.7 189.83L184.5 190.1L184.9 190.37L185.17 190.77L185.3 191.57L185.7 193.85L185.83 195.46V196.93L186.1 199.21L186.37 199.88L186.64 200.28L187.04 200.41L187.71 200.81L189.58 201.48L191.32 202.28L193.06 202.82L194.94 203.22L198.96 203.76H205.39L207.93 203.49L210.34 203.09L212.35 202.42L214.76 201.08L216.37 199.34L217.44 197.33L217.71 195.05L217.31 193.04L216.1 191.3L214.09 189.96L211.28 188.75L209.27 188.08L204.58 186.61L201.77 186.21L199.36 185.94L197.08 185.81L192.39 185.27L187.84 184.2L183.29 182.86L181.01 182.06L178.73 181.39L176.59 180.59L174.58 179.52L172.57 178.18L170.83 176.57L169.22 174.96L167.75 173.08L166.28 171.34L163.87 167.32L162.93 164.91L162.39 162.77L161.99 160.49L161.59 158.08L161.46 155.54L161.73 152.73L162.53 149.92L163.47 147.38L164.54 144.97L165.75 142.56L167.09 140.15L168.83 138.01L170.71 136.14L172.72 134.26L174.86 132.52L177.14 131.05L179.55 129.71L182.09 128.64L184.77 127.84L187.45 127.17L190.13 126.63L190.8 126.23L191.34 125.83L191.47 125.43L191.6 124.63L191.87 121.68L191.6 117.66L192 114.71L192.27 114.17L192.67 113.9L193.07 114.03H202.71L205.39 113.9L207.4 113.63H209.28L211.96 114.03L212.9 114.3L213.44 114.84L213.84 115.51L213.97 116.45L213.84 118.33V121.95L213.71 122.62L213.58 123.16L213.31 123.56V124.23L213.44 124.77L213.98 125.31L214.52 125.58L216.66 126.12L218.54 126.79L220.55 127.59L222.69 128.39L224.7 129.06L226.71 130L228.72 130.8L230.73 131.87L232.61 132.81L234.62 133.88L236.5 134.95L238.24 136.29L238.51 136.42H238.78L239.05 136.55V136.82L239.32 140.03V142.17L239.19 144.31V152.75L239.06 154.89L238.66 157.97L238.65 157.91Z" fill="#4C956C"/>
<path d="M163.125 275.353L65.1063 177.334C61.8884 174.116 56.6711 174.116 53.4532 177.334L5.91445 224.873C2.69653 228.091 2.69651 233.308 5.91443 236.526L103.934 334.545C107.151 337.763 112.369 337.763 115.587 334.545L163.125 287.006C166.343 283.788 166.343 278.571 163.125 275.353Z" fill="#4C956C"/>
<path d="M96.23 315.66L24.79 244.23C31.43 237.59 31.43 226.83 24.79 220.19L48.77 196.21C55.41 202.85 66.17 202.85 72.81 196.21L144.24 267.64C137.6 274.28 137.6 285.04 144.24 291.68L120.26 315.66C113.62 309.02 102.86 309.02 96.22 315.66H96.23Z" fill="#5FB48A"/>
<path d="M84.5199 277.01C96.1566 277.01 105.59 267.577 105.59 255.94C105.59 244.303 96.1566 234.87 84.5199 234.87C72.8833 234.87 63.45 244.303 63.45 255.94C63.45 267.577 72.8833 277.01 84.5199 277.01Z" fill="#4C956C"/>
</svg>
