<svg width="312" height="293" viewBox="0 0 312 293" fill="none" xmlns="http://www.w3.org/2000/svg">
<path d="M198.12 139.54L218.47 87.53C224.57 71.94 231.45 56.66 239.2 41.81C247.8 25.35 251.9 0.5 185.71 0.5C111.71 0.5 118.27 26.03 127.55 41.87C134.39 53.54 140.37 65.69 145.87 78.05L173.51 140.2C173.91 141.09 174.37 141.96 174.96 142.74C179.73 149.01 188.77 149.71 194.49 144.83C196.14 143.42 197.33 141.56 198.12 139.55V139.54Z" fill="#C57C95"/>
<path d="M233.84 69.58C233.84 89.7 211.94 106.01 184.92 106.01C157.9 106.01 136 89.7 136 69.58C136 49.46 157.9 42.51 184.92 42.51C211.94 42.51 233.84 49.46 233.84 69.58Z" fill="#87374B"/>
<path d="M184.92 57.51C128.59 57.51 80.87 108 64.49 165.66C72.14 160.62 81.09 157.91 90.45 157.91C103.09 157.91 114.98 162.83 123.92 171.77C132.86 180.71 137.78 192.59 137.78 205.24C137.78 217.89 132.86 229.77 123.92 238.71L91.02 271.61C114.17 286.62 147.66 292.18 184.92 292.18C254.78 292.18 311.42 272.65 311.42 207.85C311.42 143.05 254.79 57.51 184.92 57.51Z" fill="#C57C95"/>
<path d="M218.14 157.91L218.01 158.85L217.74 159.52L217.34 159.92L216.54 160.05L213.73 160.18H211.72L209.71 160.05H206.76L203.95 160.18L201.94 160.31H199.93L196.98 160.04L196.18 159.77L195.51 159.5L194.97 158.96L194.7 158.16L194.43 155.35L195.23 151.6V148.79L194.96 148.39H193.75L193.08 148.26L190.54 147.86L187.86 147.73L185.18 147.86H182.37L180.36 147.73H178.08L175.8 147.86L173.66 148.53L171.65 149.74L170.18 151.21L169.11 153.22L168.71 155.5L169.11 158.04L170.45 160.18L172.46 161.79L175 163L177.28 163.54L179.69 163.81L185.31 164.35L187.59 164.75L189.87 165.42L192.01 165.96L194.29 166.5L196.7 166.9L198.98 167.17L201.26 167.57L203.54 168.11L205.82 169.05L207.83 169.99L211.85 172.27L213.86 173.61L215.6 175.08L217.34 176.69L218.81 178.3L220.28 180.18L221.75 181.92L222.96 183.93L224.03 186.21L224.43 188.35L224.7 190.63V195.59L224.57 198L224.03 200.28L223.49 202.42L222.82 204.43L222.15 206.84L220.54 211.13L219.33 213.14L217.86 214.75L216.12 216.36L214.24 217.83L212.23 219.17L210.35 220.24L206.06 222.12L203.78 222.92L201.64 223.86L199.63 224.8L197.35 225.6L195.07 226.27L194 226.54L193.73 226.94L193.6 227.48L193.47 230.02V232.83L193.07 235.37L192.94 236.31L192.67 237.11L192.27 237.65L191.33 237.92L188.79 238.32H186.91L185.03 238.19L179.67 237.92L177.79 237.79L176.05 237.39L173.51 236.99L172.57 236.86L171.77 236.59L171.23 236.32L170.96 235.52L170.69 232.84V230.96L170.96 229.22L170.83 226.54L170.7 226L170.57 225.87H170.17L169.63 225.74L164.54 225.2L162.13 224.8L159.72 224.26L157.44 223.32L155.16 222.25L153.02 220.91L150.74 219.7L146.45 217.29L144.31 215.95L142.17 214.34L141.5 213.67L141.23 213.27L141.1 212.73L140.97 209.52L141.24 205.23L141.37 202.15V198.94L141.5 196.8L141.77 194.79L142.17 191.71L142.3 190.64L142.43 189.84L142.83 189.3L143.63 188.9L146.44 188.5L148.45 188.63L150.46 188.9L153.27 189.03H156.22L158.23 189.16L163.19 189.83L163.99 190.1L164.39 190.37L164.66 190.77L164.79 191.57L165.19 193.85L165.32 195.46V196.93L165.59 199.21L165.86 199.88L166.13 200.28L166.53 200.41L167.2 200.81L169.07 201.48L170.81 202.28L172.55 202.82L174.43 203.22L178.45 203.76H184.88L187.42 203.49L189.83 203.09L191.84 202.42L194.25 201.08L195.86 199.34L196.93 197.33L197.2 195.05L196.8 193.04L195.59 191.3L193.58 189.96L190.77 188.75L188.76 188.08L184.07 186.61L181.26 186.21L178.85 185.94L176.57 185.81L171.88 185.27L167.33 184.2L162.78 182.86L160.5 182.06L158.22 181.39L156.08 180.59L154.07 179.52L152.06 178.18L150.32 176.57L148.71 174.96L147.24 173.08L145.77 171.34L143.36 167.32L142.42 164.91L141.88 162.77L141.48 160.49L141.08 158.08L140.95 155.54L141.22 152.73L142.02 149.92L142.96 147.38L144.03 144.97L145.24 142.56L146.58 140.15L148.32 138.01L150.2 136.14L152.21 134.26L154.35 132.52L156.63 131.05L159.04 129.71L161.58 128.64L164.26 127.84L166.94 127.17L169.62 126.63L170.29 126.23L170.83 125.83L170.96 125.43L171.09 124.63L171.36 121.68L171.09 117.66L171.49 114.71L171.76 114.17L172.16 113.9L172.56 114.03H182.2L184.88 113.9L186.89 113.63H188.77L191.45 114.03L192.39 114.3L192.93 114.84L193.33 115.51L193.46 116.45L193.33 118.33V121.95L193.2 122.62L193.07 123.16L192.8 123.56V124.23L192.93 124.77L193.47 125.31L194.01 125.58L196.15 126.12L198.03 126.79L200.04 127.59L202.18 128.39L204.19 129.06L206.2 130L208.21 130.8L210.22 131.87L212.1 132.81L214.11 133.88L215.99 134.95L217.73 136.29L218 136.42H218.27L218.54 136.55V136.82L218.81 140.03V142.17L218.68 144.31V152.75L218.55 154.89L218.15 157.97L218.14 157.91Z" fill="#87374B"/>
<path d="M64.06 178.84C50.07 164.85 27.75 164.29 13.09 177.14C-3.38996 191.59 -3.58996 216.77 11.91 232.27L55.83 276.19C60.38 280.74 67.76 280.74 72.3 276.19L116.85 231.64C131.43 217.06 131.43 193.43 116.85 178.85C102.27 164.27 78.64 164.27 64.06 178.85V178.84Z" fill="#CA4954"/>
</svg>
