<svg width="277" height="115" viewBox="0 0 277 115" fill="none" xmlns="http://www.w3.org/2000/svg">
<path d="M20.448 73.336L20.352 74.104L20.448 74.584L21.408 74.776L22.752 74.872L26.4 74.776H34.176L39.072 74.872H40.608L51.84 74.68L53.376 74.584L56.544 74.296H58.176L59.424 74.584L60 75.448L60.192 76.792L60.288 78.232L60.384 79.768V83.704L60.576 86.104L60.48 87.64L60.384 88.984L60.192 89.944L59.808 90.52L59.232 90.808L56.16 91.288L54.816 91.384L52.704 91.288L51.264 91.192L44.256 90.808H38.88L30.432 91.288H16.512L9.504 91.192L4.128 91L2.976 90.904L2.304 90.52L2.112 89.944L2.016 88.888L2.208 83.128V81.592L1.92 75.736L2.016 74.2L2.304 71.32L2.88 68.44L3.168 66.904L3.648 65.272L4.128 63.736L4.416 62.968L5.088 61.432L5.856 60.184L7.488 58.456L8.544 57.496L10.272 56.152L11.424 55.384L13.344 54.136L14.592 53.464L16.608 52.504L18.048 52.024L20.448 51.256L22.08 50.872L23.712 50.584L25.248 50.392L30.144 50.104L31.008 50.008L32.736 49.912L35.136 49.816L36.864 49.432L37.632 49.048L39.072 48.184L39.744 47.512L40.608 46.264L41.184 44.248V42.136L40.992 41.368L40.512 39.832L40.128 39.16L39.168 38.008L37.92 37.432L35.808 36.856L34.464 36.664L33.024 36.568H31.584L30.24 36.664L28.896 36.952L26.88 37.624L25.632 38.296L25.056 38.68L24.096 39.736L23.616 40.312L22.944 41.752L22.464 43.096L21.6 43.672L20.16 44.056H19.296L17.664 44.152L13.632 43.96H9.6L7.968 43.864L5.472 43.576L4.224 43.384L3.552 43L3.264 42.52V40.888L3.456 39.448L3.648 38.584L3.936 37.048L4.128 36.376L4.608 34.936L5.568 33.112L6.336 31.768L7.2 30.52L8.256 29.272L9.408 28.216L10.56 27.256L12.384 26.008L13.728 25.24L16.608 23.704L18.24 23.032L19.776 22.552L21.888 22.072L23.424 21.784L24.864 21.496L26.208 21.304L28.32 21.208L29.856 21.112H33.024L35.232 21.016H36.768L38.208 21.112L39.648 21.4L41.664 21.88L43.104 22.36L46.176 23.32L47.616 23.8L49.056 24.376L51.072 25.336L52.416 26.104L53.664 27.16L54.912 28.408L55.968 29.656L56.928 30.904L58.176 32.632L58.848 33.976L59.52 35.416L60 36.856L60.48 38.2L60.768 39.64L61.056 41.944V43.384L60.96 45.496L60.768 46.84L60.288 49.048L59.904 50.488L59.328 52.12L58.656 53.56L57.6 55.384L56.736 56.632L55.488 58.264L54.432 59.32L52.896 60.76L51.648 61.528L49.632 62.584L48.192 63.16L46.56 63.64L45.024 64.12L43.392 64.408L41.856 64.696L39.648 64.888L38.112 65.08L36.48 65.368L34.944 65.656L32.64 65.848L31.008 65.944H30.24L28.512 66.04H27.744L26.112 66.328L25.344 66.616L23.904 67.288L23.328 67.768L22.272 68.824L21.504 69.976L20.928 71.32L20.736 72.088L20.448 73.336ZM164.448 73.336L164.352 74.104L164.448 74.584L165.408 74.776L166.752 74.872L170.4 74.776H178.176L183.072 74.872H184.608L195.84 74.68L197.376 74.584L200.544 74.296H202.176L203.424 74.584L204 75.448L204.192 76.792L204.288 78.232L204.384 79.768V83.704L204.576 86.104L204.48 87.64L204.384 88.984L204.192 89.944L203.808 90.52L203.232 90.808L200.16 91.288L198.816 91.384L196.704 91.288L195.264 91.192L188.256 90.808H182.88L174.432 91.288H160.512L153.504 91.192L148.128 91L146.976 90.904L146.304 90.52L146.112 89.944L146.016 88.888L146.208 83.128V81.592L145.92 75.736L146.016 74.2L146.304 71.32L146.88 68.44L147.168 66.904L147.648 65.272L148.128 63.736L148.416 62.968L149.088 61.432L149.856 60.184L151.488 58.456L152.544 57.496L154.272 56.152L155.424 55.384L157.344 54.136L158.592 53.464L160.608 52.504L162.048 52.024L164.448 51.256L166.08 50.872L167.712 50.584L169.248 50.392L174.144 50.104L175.008 50.008L176.736 49.912L179.136 49.816L180.864 49.432L181.632 49.048L183.072 48.184L183.744 47.512L184.608 46.264L185.184 44.248V42.136L184.992 41.368L184.512 39.832L184.128 39.16L183.168 38.008L181.92 37.432L179.808 36.856L178.464 36.664L177.024 36.568H175.584L174.24 36.664L172.896 36.952L170.88 37.624L169.632 38.296L169.056 38.68L168.096 39.736L167.616 40.312L166.944 41.752L166.464 43.096L165.6 43.672L164.16 44.056H163.296L161.664 44.152L157.632 43.96H153.6L151.968 43.864L149.472 43.576L148.224 43.384L147.552 43L147.264 42.52V40.888L147.456 39.448L147.648 38.584L147.936 37.048L148.128 36.376L148.608 34.936L149.568 33.112L150.336 31.768L151.2 30.52L152.256 29.272L153.408 28.216L154.56 27.256L156.384 26.008L157.728 25.24L160.608 23.704L162.24 23.032L163.776 22.552L165.888 22.072L167.424 21.784L168.864 21.496L170.208 21.304L172.32 21.208L173.856 21.112H177.024L179.232 21.016H180.768L182.208 21.112L183.648 21.4L185.664 21.88L187.104 22.36L190.176 23.32L191.616 23.8L193.056 24.376L195.072 25.336L196.416 26.104L197.664 27.16L198.912 28.408L199.968 29.656L200.928 30.904L202.176 32.632L202.848 33.976L203.52 35.416L204 36.856L204.48 38.2L204.768 39.64L205.056 41.944V43.384L204.96 45.496L204.768 46.84L204.288 49.048L203.904 50.488L203.328 52.12L202.656 53.56L201.6 55.384L200.736 56.632L199.488 58.264L198.432 59.32L196.896 60.76L195.648 61.528L193.632 62.584L192.192 63.16L190.56 63.64L189.024 64.12L187.392 64.408L185.856 64.696L183.648 64.888L182.112 65.08L180.48 65.368L178.944 65.656L176.64 65.848L175.008 65.944H174.24L172.512 66.04H171.744L170.112 66.328L169.344 66.616L167.904 67.288L167.328 67.768L166.272 68.824L165.504 69.976L164.928 71.32L164.736 72.088L164.448 73.336Z" fill="black"/>
<path d="M270.261 66.616L270.357 68.248V69.88L270.261 71.512L270.165 73.048L269.781 75.16L269.397 76.504L268.437 78.424L267.669 79.768L266.805 81.112L264.693 83.608L263.541 84.664L260.661 86.872L259.221 87.736L257.685 88.6L256.149 89.272L254.709 89.944L252.789 90.616L251.349 91.096L249.717 91.576L248.181 91.864L246.069 91.96L244.725 92.056L242.613 91.96H241.269L239.157 91.768L237.621 91.672L235.989 91.48L232.917 91.288L231.381 91.096L229.077 90.616L227.637 90.232L226.197 89.656L224.853 88.984L222.837 87.832L221.589 86.968L220.053 85.72L218.997 84.76L217.653 83.128L216.693 81.976L215.829 80.536L215.061 79.192L214.293 77.272L213.909 75.928L213.429 73.816L213.237 72.28L213.141 70.648L213.333 69.208L214.005 68.536L215.157 68.344L217.365 68.152L221.781 68.44H223.317L227.637 68.152H229.941L231.189 68.44L231.861 69.016L232.341 70.264L232.917 71.896L233.877 73.336L234.933 74.392L236.181 75.256L237.621 75.736L238.965 76.12L241.077 76.216H242.421L244.533 76.12L245.973 75.736L247.509 75.064L249.045 74.2L250.293 72.856L250.965 71.32L251.253 69.784L251.349 68.056L250.965 66.52L250.773 65.944L249.909 64.696L248.853 63.64L247.605 62.68L246.069 62.008L244.533 61.624L242.325 61.336L240.885 61.24L237.909 61.432L235.797 61.624L229.365 61.24H227.829L216.405 61.432L215.157 61.144L214.485 60.376L214.389 59.128L214.293 53.368V51.832L214.389 46.072V44.536L214.101 38.776V37.24L214.389 31.48L214.293 29.848L214.005 26.584L213.909 25.048L214.005 24.184L214.293 22.744L215.157 21.976L216.309 21.784H218.325L221.973 22.072H223.509L229.077 21.784L230.613 21.688L236.181 21.592L244.821 22.168L250.389 21.976H258.837L261.717 21.784L264.597 21.976L265.653 22.168L266.325 22.456L266.805 23.032L266.997 24.184L267.093 24.856L267.189 26.296L266.997 29.176V32.248L266.901 33.784L266.613 35.416L266.421 36.856L265.749 37.624L264.501 37.816L263.733 37.912H262.197L258.165 38.008H256.629L248.757 37.912H242.421L237.909 37.624H236.277L234.645 37.72L233.205 38.104L232.437 38.872L232.245 40.024L232.149 42.904L232.341 44.248L232.917 45.4L234.069 46.072L235.413 46.264L240.789 45.976H242.421L244.821 46.168L247.893 46.36L249.333 46.552L251.733 46.84L254.805 47.416L256.245 47.896L258.261 48.76L259.701 49.528L261.141 50.392L262.389 51.256L265.077 53.464L266.421 55.096L267.285 56.248L267.957 57.688L268.533 59.224L269.301 61.336L269.589 62.872L270.069 65.08L270.261 66.616Z" fill="#AD2831"/>
<path d="M104 92C98.664 92 94.2755 87.9436 93.7497 82.7463C89.7029 86.0496 83.7315 85.8147 79.9584 82.0416C76.1853 78.2685 75.9504 72.2971 79.2537 68.2502C74.0564 67.7245 70 63.336 70 58C70 52.664 74.0564 48.2755 79.2537 47.7497C75.9504 43.7029 76.1853 37.7315 79.9584 33.9584C83.7315 30.1853 89.7029 29.9504 93.7497 33.2537C94.2755 28.0564 98.664 24 104 24C109.336 24 113.725 28.0564 114.25 33.2537C118.297 29.9504 124.269 30.1853 128.042 33.9584C131.815 37.7315 132.05 43.7029 128.746 47.7497C133.944 48.2755 138 52.664 138 58C138 63.336 133.944 67.7245 128.746 68.2503C132.05 72.2971 131.815 78.2685 128.042 82.0416C124.269 85.8147 118.297 86.0496 114.25 82.7463C113.725 87.9436 109.336 92 104 92Z" fill="#6C92EB"/>
<path d="M105 92C99.664 92 95.2755 87.9436 94.7497 82.7463C90.7029 86.0496 84.7315 85.8147 80.9584 82.0416C77.1853 78.2685 76.9504 72.2971 80.2537 68.2502C75.0564 67.7245 71 63.336 71 58C71 52.664 75.0564 48.2755 80.2537 47.7497C76.9504 43.7029 77.1853 37.7315 80.9584 33.9584C84.7315 30.1853 90.7029 29.9504 94.7497 33.2537C95.2755 28.0564 99.664 24 105 24C110.336 24 114.725 28.0564 115.25 33.2537C119.297 29.9504 125.269 30.1853 129.042 33.9584C132.815 37.7315 133.05 43.7029 129.746 47.7497C134.944 48.2755 139 52.664 139 58C139 63.336 134.944 67.7245 129.746 68.2503C133.05 72.2971 132.815 78.2685 129.042 82.0416C125.269 85.8147 119.297 86.0496 115.25 82.7463C114.725 87.9436 110.336 92 105 92Z" fill="#6C92EB"/>
</svg>
