<svg width="97" height="99" viewBox="0 0 97 99" fill="none" xmlns="http://www.w3.org/2000/svg">
<path d="M37.4419 19.8308C48.4063 30.783 48.5 49.2444 48.5 49.2444C48.5 49.2444 30.817 49.9488 19.8527 38.9966C8.88835 28.0444 8.79463 9.58299 8.79463 9.58299C8.79463 9.58299 26.4776 8.87863 37.4419 19.8308Z" fill="#6C92EB"/>
<path d="M59.5581 19.8308C48.5937 30.783 48.5 49.2444 48.5 49.2444C48.5 49.2444 66.183 49.9488 77.1473 38.9966C88.1116 28.0444 88.2054 9.58299 88.2054 9.58299C88.2054 9.58299 70.5224 8.87863 59.5581 19.8308Z" fill="#6C92EB"/>
<path d="M37.4419 78.6426C48.4063 67.6904 48.5 49.2291 48.5 49.2291C48.5 49.2291 30.817 48.5247 19.8527 59.4769C8.88835 70.4291 8.79463 88.8905 8.79463 88.8905C8.79463 88.8905 26.4776 89.5948 37.4419 78.6426Z" fill="#6C92EB"/>
<path d="M59.5581 78.6426C48.5937 67.6904 48.5 49.2291 48.5 49.2291C48.5 49.2291 66.183 48.5247 77.1473 59.4769C88.1116 70.4291 88.2054 88.8905 88.2054 88.8905C88.2054 88.8905 70.5224 89.5948 59.5581 78.6426Z" fill="#6C92EB"/>
</svg>
