<svg width="97" height="99" viewBox="0 0 97 99" fill="none" xmlns="http://www.w3.org/2000/svg">
<path d="M37.4419 19.8307C48.4063 30.7829 48.5 49.2443 48.5 49.2443C48.5 49.2443 30.817 49.9487 19.8527 38.9965C8.88835 28.0443 8.79463 9.5829 8.79463 9.5829C8.79463 9.5829 26.4776 8.87854 37.4419 19.8307Z" fill="#6C92EB"/>
<path d="M59.5581 19.8307C48.5937 30.7829 48.5 49.2443 48.5 49.2443C48.5 49.2443 66.183 49.9487 77.1473 38.9965C88.1116 28.0443 88.2054 9.5829 88.2054 9.5829C88.2054 9.5829 70.5224 8.87854 59.5581 19.8307Z" fill="#6C92EB"/>
<path d="M37.4419 78.6427C48.4063 67.6905 48.5 49.2291 48.5 49.2291C48.5 49.2291 30.817 48.5247 19.8527 59.4769C8.88835 70.4291 8.79463 88.8905 8.79463 88.8905C8.79463 88.8905 26.4776 89.5949 37.4419 78.6427Z" fill="#6C92EB"/>
<path d="M59.5581 78.6427C48.5937 67.6905 48.5 49.2291 48.5 49.2291C48.5 49.2291 66.183 48.5247 77.1473 59.4769C88.1116 70.4291 88.2054 88.8905 88.2054 88.8905C88.2054 88.8905 70.5224 89.5949 59.5581 78.6427Z" fill="#6C92EB"/>
</svg>
