<svg width="1313" height="199" viewBox="0 0 1313 199" fill="none" xmlns="http://www.w3.org/2000/svg">
<path d="M117.123 130.366V141.781L117.289 144.427L117.62 148.563L117.785 151.045L117.62 153.361L116.793 155.511L115.635 156.669L113.815 156.835L111.168 157.165L102.235 156.669H99.588L90.8203 157.331H88.1734L85.8574 156.835L84.8649 155.511L84.534 153.195L83.8723 142.442L83.7069 139.795L84.0377 129.043V126.396L83.7069 115.808V113.492L83.0451 112.169L81.2254 111.507H77.2551L70.638 112.003L67.9911 112.169L54.7569 111.838L45.8237 111.342L43.6731 111.507L42.1843 112.003L41.3571 113.492L41.1917 115.808L41.3571 126.396V129.043L41.0263 139.795L41.1917 142.442L41.8534 149.556V153.361L41.1917 155.677L39.7029 157L37.5523 157.496L35.0709 157.662L32.5894 157.496L25.6414 156.835L22.9946 156.669L15.2194 157.165L12.5726 157H11.2491L9.42943 156.669L8.106 156.007L7.44429 155.18L7.11343 153.361L6.948 151.872V149.225L7.27886 144.262V130.366L7.60972 121.598V118.951L7.77514 110.184V107.537L7.27886 98.7691V96.1223L7.11343 87.3546V75.94L7.27886 73.2931L7.77514 64.5254L7.94057 61.8786L7.77514 53.1109L7.60972 50.464L6.78257 44.8394V41.3654L7.44429 39.3803L8.93314 38.2223L11.0837 37.726L13.5651 37.5606H16.0466L22.9946 37.8914H25.6414L32.2586 37.3951H34.9054L37.3869 37.5606L39.5374 37.8914L40.8609 39.2149L41.5226 41.3654L41.688 42.5234V45.0048L41.1917 52.4491L41.0263 55.096L40.8609 65.8489V79.414L41.0263 81.3991L41.5226 82.7226L42.3497 83.3843L44.004 83.5497L46.32 83.7151H48.636L54.9223 82.7226L57.4037 82.5571L67.9911 82.888L77.7514 83.5497H80.2329L81.3909 83.3843L83.2106 82.3917L83.8723 81.0683L84.0377 79.2486L84.6994 68.4957V65.8489L84.3686 55.096V52.4491L84.2031 41.6963L84.6994 39.0494L86.0229 37.5606L88.008 37.2297H90.6549L99.588 37.726H102.235L109.679 37.2297L112.326 37.3951H113.815L115.965 37.726L117.289 39.0494L117.951 41.3654V43.8469L117.454 50.464L117.289 53.1109L117.785 61.8786V64.5254L117.454 73.2931V75.94L118.116 84.7077V87.3546L117.454 96.1223V98.7691L117.123 107.537V110.184L117.289 118.951V121.598L117.123 130.366ZM380.378 140.953V141.946L379.055 143.269L376.077 145.916L374.092 147.405L370.949 149.721L368.964 151.045L365.655 152.864L363.505 154.022L359.7 155.842L357.218 156.669L354.406 157.496L351.594 157.993L347.458 158.82L341.668 159.481L338.69 159.647L334.555 159.978H325.952L323.14 159.812L320.328 159.481L317.516 158.985L314.703 158.323L312.222 157.496L304.778 155.511L301.138 154.188L298.988 153.195L295.844 151.375L293.859 149.887L291.709 148.398L289.393 146.909L285.092 143.269L283.106 141.284L281.287 139.134L279.467 136.652L277.978 134.336L276.655 132.02L275.497 129.704L273.842 126.23L271.361 119.282L270.203 115.974L268.549 111.011L268.218 108.529L268.052 104.725L268.218 102.243L268.383 99.5963V96.784L268.714 91.1594L268.88 88.5126L269.376 86.0311L270.038 82.3917L270.699 79.9103L271.526 77.4289L272.354 75.1129L273.512 71.8043L274.67 69.4883L275.828 67.0069L277.151 64.5254L278.64 62.044L280.129 59.728L281.783 57.5774L283.603 55.2614L285.588 53.1109L287.573 51.2911L289.724 49.4714L291.709 47.8171L297.002 44.1777L299.153 42.8543L301.469 41.5309L306.432 39.2149L309.244 38.2223L311.891 37.3951L317.516 36.0717L320.328 35.5754L323.14 35.2446L328.268 34.9137L331.908 34.5829L334.389 34.7483L338.029 34.9137L344.15 35.7408L346.466 36.2371L350.27 36.8989L356.06 38.5531L358.376 39.5457L362.016 41.6963L364.332 43.0197L368.633 45.9974L373.761 49.6368L375.581 50.9603L376.574 51.7874L377.732 52.9454L378.062 54.2688L377.897 55.5923L376.904 56.9157L375.416 58.7354L373.596 60.5551L371.776 62.2094L369.956 63.6983L368.137 65.518L365.324 68.8266L363.505 70.8117L362.678 71.6389L361.189 72.9623L360.031 73.4586L358.873 73.624L357.715 73.2931L355.895 72.3006L352.752 69.9846L350.601 68.8266L346.962 67.1723L344.646 66.3451L341.006 65.3526L338.525 64.8563L334.389 64.5254H331.742L328.103 64.8563L325.456 65.518L321.817 66.676L319.335 67.6686L317.185 68.4957L313.876 70.15L311.56 71.8043L310.402 72.7969L308.417 74.9474L306.928 77.2634L305.77 79.414L304.612 81.73L303.62 84.2114L302.792 86.8583L302.296 89.6706L301.965 92.152L301.634 97.1149V99.7617L301.8 103.897L301.965 106.379L302.792 110.184L303.62 112.665L304.778 115.477L306.101 117.959L308.582 121.598L310.402 123.583L313.545 126.23L315.696 127.719L319.004 129.373L321.486 130.366L325.125 131.359L327.772 131.855L331.742 132.02H335.547L337.863 131.524L339.187 131.193L341.668 130.366L345.804 128.877L348.451 127.719L350.932 126.561L353.083 125.403L356.226 123.418L358.376 121.764L360.031 120.606L361.023 120.275L362.512 120.606L364.332 121.764L366.152 123.418L366.813 124.411L368.468 126.23L371.114 129.539L372.769 131.524L377.235 136.652L378.724 138.637L379.551 139.465L380.378 140.953ZM496.402 146.413L503.681 153.691L504.508 155.18L504.012 156.007L503.515 157L502.357 157.662H500.207L491.274 157H488.627L478.205 156.835H475.558L464.971 157.331L462.985 157.165L461.497 156.007L455.707 149.556L454.218 147.571L449.089 140.292L447.601 138.472L441.149 132.02L439.495 130.035L434.035 123.583L432.712 121.764L431.885 120.275L430.727 119.779L429.734 120.44L429.403 122.591V134.005L429.073 142.939V145.585L429.238 149.556V152.037L429.073 154.519L428.907 156.173L428.08 156.835L426.095 157.165L420.967 157.496H415.838L408.229 156.835L405.582 157L397.31 157.662L395.987 157.165L395.325 156.173L395.16 154.684L394.994 152.368V149.721L395.16 145.585L395.325 142.773L394.663 133.84V122.26L394.829 119.613L395.325 110.515L395.491 107.868V96.2877L395.16 87.3546V84.7077L395.491 75.6091V72.9623L395.16 52.4491V49.8023L395.656 40.8691L395.821 38.884L396.318 38.0568L397.972 37.726L400.453 37.8914L405.582 38.3877H408.229L415.838 37.726H418.485L426.095 38.2223L427.915 38.3877L428.742 38.884L429.238 40.2074L429.403 41.8617L429.238 44.0123L428.742 49.4714L428.576 52.1183L429.073 60.886V63.5329L429.238 72.3006L429.569 74.1203L430.892 74.4511L432.712 73.2931L437.84 66.1797L446.773 55.4269L451.902 48.3134L453.556 46.3283L459.346 39.7111L460.669 38.3877L462.324 38.0568L469.933 37.5606H472.58L482.671 38.2223L488.958 38.3877H491.605L497.891 38.2223L499.711 38.3877L500.538 39.0494L500.869 39.3803L500.703 39.8766L499.38 41.3654L493.093 48.3134L491.439 50.2986L485.649 57.9083L483.995 59.8934L477.543 67.0069L475.889 68.992L469.768 76.2709L468.114 78.256L462.158 85.5349L460.339 87.52L456.203 91.3249L454.383 93.31L453.556 94.3026L452.729 95.626L453.06 96.6186L454.218 98.1074L460.339 106.213L462.158 108.199L469.437 115.477L471.091 117.463L477.543 125.403L479.197 127.388L485.98 134.998L487.634 136.983L494.748 144.427L496.402 146.413ZM816.21 133.178L815.879 141.946L816.045 144.593L816.707 149.721L816.872 152.203L816.707 153.526L816.541 155.346L815.714 156.669L814.722 157.496L812.902 157.827L810.42 157.993H807.774L801.156 157.496L798.344 157.331H794.208L791.231 157.165L785.11 156.338L783.952 156.007L783.29 155.18L783.125 153.526L782.959 151.21L782.794 148.729L783.125 143.104V127.554L782.628 117.132V114.485L783.29 104.228V91.3249L782.959 89.3397L781.967 88.678H780.974L779.816 90.1669L778.162 92.4829L771.214 100.423L761.123 112.5L754.505 120.771L753.017 122.095L751.859 122.591H750.535L748.715 122.26L746.73 121.764L744.911 120.44L736.639 110.515L730.518 102.409L728.864 100.423L720.262 90.8286L718.111 88.678L717.119 89.0089L716.788 90.8286L716.291 101.251V103.897L716.953 114.319V116.966L717.284 127.388V130.035L717.119 140.292V142.773L717.284 147.736L717.119 150.383L716.953 153.195L716.622 155.346L715.961 156.338L714.803 156.669L710.501 157.165L707.855 157.331L701.403 156.835L698.756 157L690.815 157.662H687.011L685.025 157.331L684.033 156.338L683.702 155.18L683.371 153.526V149.721L683.702 144.593V119.117L683.371 110.349V107.702L683.537 98.9346L683.371 96.2877L682.875 87.3546V84.7077L683.371 75.94L683.537 73.2931L682.875 64.5254L683.04 61.8786L683.702 53.1109V50.464L683.04 44.3431V41.6963L683.371 39.5457L684.033 38.3877L685.025 37.5606L686.349 37.2297L688.499 37.0643L691.312 37.3951L694.951 38.2223H697.598L702.726 37.726L705.539 37.3951L708.02 37.2297L714.306 37.3951H716.457L718.277 38.2223L719.931 40.042L725.721 46.4937L727.375 48.6443L732.173 55.4269L733.827 57.5774L739.286 64.0291L740.94 66.3451L746.069 72.7969L747.723 74.6166L749.212 75.4437H750.866L752.355 74.6166L753.844 72.9623L758.807 66.3451L760.461 64.0291L765.755 57.5774L767.409 55.4269L773.199 48.9751L774.853 46.8246L779.154 41.5309L780.478 39.7111L781.801 38.3877L783.455 37.5606L785.606 37.726L794.374 38.2223L802.149 38.3877H804.796L809.759 38.0568L812.571 38.2223L814.556 38.5531L815.714 38.884L816.707 39.7111L817.038 41.0346L816.872 43.0197L816.21 50.464L816.045 53.1109L816.376 61.8786V64.5254L816.21 73.2931V75.94L816.376 84.7077V87.3546L817.038 96.2877V98.9346L816.376 107.702V110.349L816.872 119.117V121.764L816.21 130.531V133.178ZM1085.36 53.7726L1084.86 63.5329L1084.7 66.1797V90.6631L1085.19 100.258V102.905L1085.52 124.741V127.554L1085.36 128.877L1085.19 131.689L1084.7 139.63L1084.86 149.225L1084.7 151.541L1084.04 153.526L1082.71 155.346L1081.06 156.504L1079.57 157L1077.25 157.165L1068.82 157.496L1066.17 157.662L1062.03 157.827H1059.39L1057.24 157.331L1055.25 156.504L1053.27 155.015L1051.78 152.864L1049.3 148.067L1047.81 145.916L1041.35 137.81L1039.7 135.825L1033.25 127.885L1031.76 125.734L1025.97 117.132L1024.48 115.147L1018.03 107.206L1016.38 105.221L1010.25 97.1149L1008.77 95.7914L1007.61 96.2877L1007.11 98.2729L1006.78 106.544V109.191L1006.95 117.463V120.109L1007.11 129.373V132.02L1006.61 141.284L1006.78 143.931L1007.77 150.548L1007.94 153.195L1007.44 155.346L1006.28 156.504L1005.13 156.835L1003.14 157.165L1001.82 157.331L999.005 157.496L991.395 157.331H988.748L981.966 157.662H979.319L976.838 157.496L975.018 157.165L973.694 156.338L973.033 155.18L972.702 153.526L972.536 152.368V149.887L972.867 144.427L973.033 141.781L972.536 133.013V130.366L972.867 110.184L973.033 107.537L973.529 98.7691L973.694 96.1223V84.7077L973.033 75.94V73.2931L973.694 64.5254L973.529 61.8786L972.867 52.9454L972.702 50.2986V46.4937L972.867 44.0123L973.198 41.5309L973.529 39.7111L974.025 38.5531L975.018 38.0568L976.838 37.726L981.8 37.3951L986.763 37.726H999.17L1001.16 37.8914L1001.98 38.5531L1002.98 40.042L1009.92 47.4863L1011.58 49.4714L1017.7 57.412L1019.35 59.3971L1025.47 67.5031L1027.13 69.4883L1033.08 77.7597L1034.57 79.7449L1040.86 87.6854L1042.51 89.6706L1048.47 97.942L1049.79 99.1L1051.12 99.2654L1052.27 98.4383V96.6186L1051.12 89.6706L1050.95 87.0237L1051.45 79.9103V77.2634L1050.78 67.1723V64.5254L1051.45 54.4343L1051.28 51.7874L1050.78 45.6666V41.5309L1051.28 39.3803L1051.94 38.0568L1053.1 37.3951L1055.09 37.0643H1056.57L1059.39 36.8989L1066.83 37.3951H1069.48L1075.1 37.0643L1077.58 37.2297L1081.39 37.3951L1083.21 37.726L1084.37 38.2223L1085.36 39.3803L1085.69 41.6963L1085.86 43.1851L1086.02 45.9974L1085.69 51.1257L1085.36 53.7726ZM1142.31 121.764L1142.81 130.697V133.344L1142.15 142.277V144.924L1141.98 154.022V155.842L1141.49 156.669L1140.16 157.165L1137.85 157.331L1129.41 157.165H1119.15L1110.88 156.504L1109.89 156.173L1109.39 155.677V154.022L1109.06 149.887V147.24L1108.9 144.758V142.277L1108.4 133.344L1108.57 130.697L1109.06 121.764L1109.23 119.117L1108.73 110.018V107.371L1108.57 98.4383V84.2114L1108.4 75.1129V72.466L1108.57 63.5329V49.306L1108.24 40.2074L1108.73 38.3877L1109.72 37.726L1111.38 37.5606H1112.7L1115.18 37.3951L1119.15 37.5606H1121.8L1129.41 37.2297H1139.67L1141.49 37.5606L1141.82 38.5531L1141.98 40.3728L1142.31 44.674L1142.48 47.3208V63.5329L1142.64 72.466V75.1129L1142.48 84.2114V86.8583L1142.64 95.7914V98.4383L1142.31 107.371V121.764Z" fill="black"/>
<path d="M564.504 71.5037L520 96.5L564.504 121.496L589.5 166L614.496 121.496L659 96.5L614.496 71.5037L589.5 27L564.504 71.5037Z" fill="#6C92EB"/>
<path fill-rule="evenodd" clip-rule="evenodd" d="M200.414 38.4133C198.239 33.8622 191.761 33.8623 189.586 38.4133L136.749 148.996C134.846 152.978 137.749 157.583 142.163 157.583H247.837C252.251 157.583 255.154 152.978 253.251 148.996L200.414 38.4133ZM175.11 93.9731L195 99.556L214.89 93.9731L209.307 113.863L214.89 133.754L195 128.171L175.11 133.754L180.692 113.863L175.11 93.9731Z" fill="#AD2831"/>
<path fill-rule="evenodd" clip-rule="evenodd" d="M1291.84 157.5H1306.84C1311.25 157.5 1314.15 152.896 1312.25 148.913L1259.41 38.3305C1257.24 33.7795 1250.76 33.7795 1248.59 38.3305L1246.5 42.6968L1297.25 148.913C1299.15 152.896 1296.25 157.5 1291.84 157.5Z" fill="#FCBC08"/>
<path fill-rule="evenodd" clip-rule="evenodd" d="M899.413 38.3304C897.239 33.7794 890.761 33.7796 888.586 38.3306L835.749 148.913C833.846 152.896 836.749 157.5 841.162 157.5H946.837C951.25 157.5 954.154 152.896 952.251 148.913L899.413 38.3304ZM868 113.5L884.969 103.969L894.5 87.0001L904.031 103.969L921 113.5L904.031 123.031L894.5 140L884.969 123.031L868 113.5Z" fill="#4C956C"/>
<path fill-rule="evenodd" clip-rule="evenodd" d="M1231.26 38.4133C1229.08 33.8622 1222.61 33.8623 1220.43 38.4133L1167.59 148.996C1165.69 152.978 1168.59 157.583 1173.01 157.583H1278.68C1283.1 157.583 1286 152.978 1284.1 148.996L1231.26 38.4133ZM1218.26 131.687C1218.62 135.279 1221.66 138.083 1225.34 138.083C1229.03 138.083 1232.07 135.279 1232.43 131.687C1235.23 133.97 1239.35 133.808 1241.96 131.2C1244.57 128.592 1244.73 124.465 1242.45 121.668C1246.04 121.304 1248.84 118.271 1248.84 114.583C1248.84 110.895 1246.04 107.861 1242.45 107.498C1244.73 104.701 1244.57 100.574 1241.96 97.9658C1239.35 95.3579 1235.23 95.1956 1232.43 97.4788C1232.07 93.8865 1229.03 91.0828 1225.34 91.0828C1221.66 91.0828 1218.62 93.8865 1218.26 97.4788C1215.46 95.1956 1211.34 95.3579 1208.73 97.9658C1206.12 100.574 1205.96 104.701 1208.24 107.498C1204.65 107.861 1201.84 110.895 1201.84 114.583C1201.84 118.271 1204.65 121.304 1208.24 121.668C1205.96 124.465 1206.12 128.592 1208.73 131.2C1211.34 133.808 1215.46 133.97 1218.26 131.687Z" fill="#FCBC08"/>
</svg>
