<svg width="211" height="195" viewBox="0 0 211 195" fill="none" xmlns="http://www.w3.org/2000/svg">
<g filter="url(#filter0_d_179_128)">
<mask id="path-1-outside-1_179_128" maskUnits="userSpaceOnUse" x="141.625" y="61.035" width="67.0035" height="72.0033" fill="black">
<rect fill="white" x="141.625" y="61.035" width="67.0035" height="72.0033"/>
<path d="M168.162 82.8033L168.162 78.0363L172.929 78.0366L172.929 82.8036L168.162 82.8033ZM172.929 82.8036L172.929 78.0366L177.696 78.0368L177.696 82.8038L172.929 82.8036ZM177.696 82.8038L177.696 78.0368L182.463 78.037L182.463 82.804L177.696 82.8038ZM163.395 87.5701L163.395 82.8031L168.162 82.8033L168.162 87.5703L163.395 87.5701ZM182.463 87.571L182.463 82.804L187.23 82.8043L187.23 87.5713L182.463 87.571ZM158.627 92.3369L158.628 87.5699L163.395 87.5701L163.394 92.3371L158.627 92.3369ZM172.928 92.3376L172.929 87.5706L177.696 87.5708L177.695 92.3378L172.928 92.3376ZM177.695 92.3378L177.696 87.5708L182.463 87.571L182.462 92.338L177.695 92.3378ZM187.229 92.3383L187.23 87.5713L191.997 87.5715L191.996 92.3385L187.229 92.3383ZM158.627 97.1039L158.627 92.3369L163.394 92.3371L163.394 97.1041L158.627 97.1039ZM168.161 97.1044L168.161 92.3374L172.928 92.3376L172.928 97.1046L168.161 97.1044ZM177.695 97.1048L177.695 92.3378L182.462 92.338L182.462 97.1051L177.695 97.1048ZM187.229 97.1053L187.229 92.3383L191.996 92.3385L191.996 97.1055L187.229 97.1053ZM158.627 101.871L158.627 97.1039L163.394 97.1041L163.394 101.871L158.627 101.871ZM168.161 101.871L168.161 97.1044L172.928 97.1046L172.928 101.872L168.161 101.871ZM177.695 101.872L177.695 97.1048L182.462 97.1051L182.462 101.872L177.695 101.872ZM187.229 101.872L187.229 97.1053L191.996 97.1055L191.996 101.873L187.229 101.872ZM158.627 106.638L158.627 101.871L163.394 101.871L163.394 106.638L158.627 106.638ZM172.928 106.639L172.928 101.872L177.695 101.872L177.695 106.639L172.928 106.639ZM177.695 106.639L177.695 101.872L182.462 101.872L182.462 106.639L177.695 106.639ZM182.462 106.639L182.462 101.872L187.229 101.872L187.229 106.639L182.462 106.639ZM163.393 111.405L163.394 106.638L168.161 106.638L168.16 111.405L163.393 111.405ZM168.16 116.172L168.16 111.405L172.927 111.406L172.927 116.173L168.16 116.172ZM172.927 116.173L172.927 111.406L177.694 111.406L177.694 116.173L172.927 116.173ZM177.694 116.173L177.694 111.406L182.461 111.406L182.461 116.173L177.694 116.173ZM182.461 116.173L182.461 111.406L187.228 111.406L187.228 116.173L182.461 116.173Z"/>
</mask>
<path d="M168.162 82.8033L168.162 78.0363L172.929 78.0366L172.929 82.8036L168.162 82.8033ZM172.929 82.8036L172.929 78.0366L177.696 78.0368L177.696 82.8038L172.929 82.8036ZM177.696 82.8038L177.696 78.0368L182.463 78.037L182.463 82.804L177.696 82.8038ZM163.395 87.5701L163.395 82.8031L168.162 82.8033L168.162 87.5703L163.395 87.5701ZM182.463 87.571L182.463 82.804L187.23 82.8043L187.23 87.5713L182.463 87.571ZM158.627 92.3369L158.628 87.5699L163.395 87.5701L163.394 92.3371L158.627 92.3369ZM172.928 92.3376L172.929 87.5706L177.696 87.5708L177.695 92.3378L172.928 92.3376ZM177.695 92.3378L177.696 87.5708L182.463 87.571L182.462 92.338L177.695 92.3378ZM187.229 92.3383L187.23 87.5713L191.997 87.5715L191.996 92.3385L187.229 92.3383ZM158.627 97.1039L158.627 92.3369L163.394 92.3371L163.394 97.1041L158.627 97.1039ZM168.161 97.1044L168.161 92.3374L172.928 92.3376L172.928 97.1046L168.161 97.1044ZM177.695 97.1048L177.695 92.3378L182.462 92.338L182.462 97.1051L177.695 97.1048ZM187.229 97.1053L187.229 92.3383L191.996 92.3385L191.996 97.1055L187.229 97.1053ZM158.627 101.871L158.627 97.1039L163.394 97.1041L163.394 101.871L158.627 101.871ZM168.161 101.871L168.161 97.1044L172.928 97.1046L172.928 101.872L168.161 101.871ZM177.695 101.872L177.695 97.1048L182.462 97.1051L182.462 101.872L177.695 101.872ZM187.229 101.872L187.229 97.1053L191.996 97.1055L191.996 101.873L187.229 101.872ZM158.627 106.638L158.627 101.871L163.394 101.871L163.394 106.638L158.627 106.638ZM172.928 106.639L172.928 101.872L177.695 101.872L177.695 106.639L172.928 106.639ZM177.695 106.639L177.695 101.872L182.462 101.872L182.462 106.639L177.695 106.639ZM182.462 106.639L182.462 101.872L187.229 101.872L187.229 106.639L182.462 106.639ZM163.393 111.405L163.394 106.638L168.161 106.638L168.16 111.405L163.393 111.405ZM168.16 116.172L168.16 111.405L172.927 111.406L172.927 116.173L168.16 116.172ZM172.927 116.173L172.927 111.406L177.694 111.406L177.694 116.173L172.927 116.173ZM177.694 116.173L177.694 111.406L182.461 111.406L182.461 116.173L177.694 116.173ZM182.461 116.173L182.461 111.406L187.228 111.406L187.228 116.173L182.461 116.173Z" fill="white"/>
<path d="M168.162 82.8033L168.162 78.0363L172.929 78.0366L172.929 82.8036L168.162 82.8033ZM172.929 82.8036L172.929 78.0366L177.696 78.0368L177.696 82.8038L172.929 82.8036ZM177.696 82.8038L177.696 78.0368L182.463 78.037L182.463 82.804L177.696 82.8038ZM163.395 87.5701L163.395 82.8031L168.162 82.8033L168.162 87.5703L163.395 87.5701ZM182.463 87.571L182.463 82.804L187.23 82.8043L187.23 87.5713L182.463 87.571ZM158.627 92.3369L158.628 87.5699L163.395 87.5701L163.394 92.3371L158.627 92.3369ZM172.928 92.3376L172.929 87.5706L177.696 87.5708L177.695 92.3378L172.928 92.3376ZM177.695 92.3378L177.696 87.5708L182.463 87.571L182.462 92.338L177.695 92.3378ZM187.229 92.3383L187.23 87.5713L191.997 87.5715L191.996 92.3385L187.229 92.3383ZM158.627 97.1039L158.627 92.3369L163.394 92.3371L163.394 97.1041L158.627 97.1039ZM168.161 97.1044L168.161 92.3374L172.928 92.3376L172.928 97.1046L168.161 97.1044ZM177.695 97.1048L177.695 92.3378L182.462 92.338L182.462 97.1051L177.695 97.1048ZM187.229 97.1053L187.229 92.3383L191.996 92.3385L191.996 97.1055L187.229 97.1053ZM158.627 101.871L158.627 97.1039L163.394 97.1041L163.394 101.871L158.627 101.871ZM168.161 101.871L168.161 97.1044L172.928 97.1046L172.928 101.872L168.161 101.871ZM177.695 101.872L177.695 97.1048L182.462 97.1051L182.462 101.872L177.695 101.872ZM187.229 101.872L187.229 97.1053L191.996 97.1055L191.996 101.873L187.229 101.872ZM158.627 106.638L158.627 101.871L163.394 101.871L163.394 106.638L158.627 106.638ZM172.928 106.639L172.928 101.872L177.695 101.872L177.695 106.639L172.928 106.639ZM177.695 106.639L177.695 101.872L182.462 101.872L182.462 106.639L177.695 106.639ZM182.462 106.639L182.462 101.872L187.229 101.872L187.229 106.639L182.462 106.639ZM163.393 111.405L163.394 106.638L168.161 106.638L168.16 111.405L163.393 111.405ZM168.16 116.172L168.16 111.405L172.927 111.406L172.927 116.173L168.16 116.172ZM172.927 116.173L172.927 111.406L177.694 111.406L177.694 116.173L172.927 116.173ZM177.694 116.173L177.694 111.406L182.461 111.406L182.461 116.173L177.694 116.173ZM182.461 116.173L182.461 111.406L187.228 111.406L187.228 116.173L182.461 116.173Z" stroke="white" stroke-width="32.0343" stroke-linejoin="round" mask="url(#path-1-outside-1_179_128)"/>
<mask id="path-2-outside-2_179_128" maskUnits="userSpaceOnUse" x="110.637" y="53.7639" width="62.0038" height="79.003" fill="black">
<rect fill="white" x="110.637" y="53.7639" width="62.0038" height="79.003"/>
<path d="M142.477 79.5844C141.683 79.5843 140.948 79.3857 140.272 78.9884C139.597 78.5911 139.061 78.0548 138.664 77.3795C138.266 76.7041 138.068 75.9692 138.068 75.1747C138.068 74.3802 138.266 73.6453 138.664 72.97C139.061 72.2947 139.597 71.7584 140.273 71.3612C140.948 70.964 141.683 70.7654 142.477 70.7654C143.272 70.7655 144.007 70.9641 144.682 71.3614C145.357 71.7587 145.894 72.295 146.291 72.9703C146.688 73.6457 146.887 74.3806 146.887 75.1751C146.887 75.9696 146.688 76.7045 146.291 77.3798C145.893 78.0551 145.357 78.5914 144.682 78.9886C144.006 79.3858 143.272 79.5844 142.477 79.5844ZM145.991 110.987L155.704 110.988L155.704 116.172L127.638 116.17L127.638 110.986L139.675 110.987L139.676 89.8333L129.427 89.8328L129.427 84.5891L145.992 84.5899L145.991 110.987Z"/>
</mask>
<path d="M142.477 79.5844C141.683 79.5843 140.948 79.3857 140.272 78.9884C139.597 78.5911 139.061 78.0548 138.664 77.3795C138.266 76.7041 138.068 75.9692 138.068 75.1747C138.068 74.3802 138.266 73.6453 138.664 72.97C139.061 72.2947 139.597 71.7584 140.273 71.3612C140.948 70.964 141.683 70.7654 142.477 70.7654C143.272 70.7655 144.007 70.9641 144.682 71.3614C145.357 71.7587 145.894 72.295 146.291 72.9703C146.688 73.6457 146.887 74.3806 146.887 75.1751C146.887 75.9696 146.688 76.7045 146.291 77.3798C145.893 78.0551 145.357 78.5914 144.682 78.9886C144.006 79.3858 143.272 79.5844 142.477 79.5844ZM145.991 110.987L155.704 110.988L155.704 116.172L127.638 116.17L127.638 110.986L139.675 110.987L139.676 89.8333L129.427 89.8328L129.427 84.5891L145.992 84.5899L145.991 110.987Z" fill="white"/>
<path d="M145.991 110.987L129.974 110.986C129.974 119.832 137.144 127.004 145.99 127.004L145.991 110.987ZM155.704 110.988L171.721 110.988C171.722 102.142 164.551 94.971 155.705 94.9706L155.704 110.988ZM155.704 116.172L155.703 132.189C164.549 132.189 171.72 125.019 171.721 116.173L155.704 116.172ZM127.638 116.17L111.621 116.17C111.62 125.016 118.791 132.187 127.637 132.188L127.638 116.17ZM127.638 110.986L127.639 94.9692C118.793 94.9688 111.621 102.14 111.621 110.986L127.638 110.986ZM139.675 110.987L139.674 127.004C148.52 127.005 155.692 119.834 155.692 110.988L139.675 110.987ZM139.676 89.8333L155.693 89.8341C155.693 80.9881 148.523 73.8166 139.677 73.8162L139.676 89.8333ZM129.427 89.8328L113.41 89.832C113.409 98.6781 120.58 105.85 129.426 105.85L129.427 89.8328ZM129.427 84.5891L129.428 68.572C120.582 68.5715 113.41 75.7423 113.41 84.5883L129.427 84.5891ZM145.992 84.5899L162.01 84.5907C162.01 75.7447 154.839 68.5732 145.993 68.5728L145.992 84.5899ZM142.478 63.5672C144.497 63.5673 146.572 64.1111 148.394 65.1831L132.151 92.7937C135.323 94.6603 138.868 95.6014 142.476 95.6015L142.478 63.5672ZM148.394 65.1831C150.066 66.1667 151.486 67.587 152.47 69.2591L124.857 85.4998C126.635 88.5226 129.128 91.0155 132.151 92.7937L148.394 65.1831ZM152.47 69.2591C153.541 71.0814 154.085 73.1564 154.085 75.1755L122.051 75.1739C122.05 78.782 122.991 82.3268 124.857 85.4998L152.47 69.2591ZM154.085 75.1755C154.085 77.1945 153.541 79.2695 152.469 81.0917L124.858 64.8483C122.992 68.0211 122.051 71.5658 122.051 75.1739L154.085 75.1755ZM152.469 81.0917C151.485 82.7637 150.065 84.1838 148.393 85.1673L132.152 57.5551C129.13 59.333 126.637 61.8257 124.858 64.8483L152.469 81.0917ZM148.393 85.1673C146.571 86.2391 144.496 86.7827 142.477 86.7826L142.478 54.7483C138.87 54.7481 135.325 55.6888 132.152 57.5551L148.393 85.1673ZM142.477 86.7826C140.458 86.7825 138.383 86.2387 136.56 85.1667L152.804 57.5561C149.631 55.6895 146.086 54.7484 142.478 54.7483L142.477 86.7826ZM136.56 85.1667C134.888 84.1831 133.468 82.7628 132.485 81.0907L160.097 64.85C158.319 61.8272 155.826 59.3343 152.804 57.5561L136.56 85.1667ZM132.485 81.0907C131.413 79.2684 130.869 77.1934 130.87 75.1743L162.904 75.1759C162.904 71.5678 161.963 68.023 160.097 64.85L132.485 81.0907ZM130.87 75.1743C130.87 73.1553 131.413 71.0803 132.485 69.2581L160.096 85.5015C161.963 82.3287 162.904 78.784 162.904 75.1759L130.87 75.1743ZM132.485 69.2581C133.469 67.5861 134.889 66.166 136.561 65.1825L152.802 92.7947C155.825 91.0168 158.318 88.5241 160.096 85.5015L132.485 69.2581ZM136.561 65.1825C138.384 64.1107 140.459 63.5671 142.478 63.5672L142.476 95.6015C146.084 95.6017 149.629 94.661 152.802 92.7947L136.561 65.1825ZM145.99 127.004L155.703 127.005L155.705 94.9706L145.992 94.9701L145.99 127.004ZM139.687 110.987L139.687 116.171L171.721 116.173L171.721 110.988L139.687 110.987ZM155.704 100.155L127.639 100.153L127.637 132.188L155.703 132.189L155.704 100.155ZM143.655 116.171L143.655 110.987L111.621 110.986L111.621 116.17L143.655 116.171ZM127.637 127.003L139.674 127.004L139.676 94.9698L127.639 94.9692L127.637 127.003ZM155.692 110.988L155.693 89.8341L123.659 89.8325L123.658 110.986L155.692 110.988ZM139.677 73.8162L129.428 73.8157L129.426 105.85L139.675 105.85L139.677 73.8162ZM145.444 89.8336L145.444 84.5899L113.41 84.5883L113.41 89.832L145.444 89.8336ZM129.426 100.606L145.992 100.607L145.993 68.5728L129.428 68.572L129.426 100.606ZM129.975 84.5891L129.974 110.986L162.008 110.988L162.01 84.5907L129.975 84.5891Z" fill="white" mask="url(#path-2-outside-2_179_128)"/>
<path d="M117.87 124.178C122.293 124.179 125.879 120.593 125.879 116.17L125.88 95.6124C125.88 90.6464 124.641 85.6186 121.078 81.6677L116.309 85.9687L121.078 81.6677C117.401 77.5904 112.442 75.9836 107.385 75.9834C105.205 75.9832 102.83 76.2407 100.545 77.0438C99.7011 76.7424 98.7939 76.5788 97.8511 76.5788L92.1307 76.5785C87.7077 76.5783 84.122 80.1637 84.1218 84.5867L84.1202 116.168C84.12 120.591 87.7054 124.177 92.1284 124.177L98.4447 124.177C101.155 124.178 103.55 122.832 105 120.772C106.449 122.832 108.844 124.178 111.554 124.178L117.87 124.178Z" fill="white" stroke="white" stroke-width="16.0172" stroke-linejoin="round"/>
<path d="M53.6129 90.6634C53.6128 91.555 53.7585 92.4126 54.0274 93.2137C54.0226 93.228 54.0178 93.2423 54.0131 93.2566C50.8182 94.3088 48.5118 97.3173 48.5117 100.865L48.5114 105.965L48.5112 111.066C48.511 114.613 50.8171 117.622 54.0119 118.674C55.0641 121.869 58.0726 124.176 61.6198 124.176L66.7205 124.176L71.8212 124.176L76.9219 124.177L82.0226 124.177C86.4456 124.177 90.0314 120.592 90.0316 116.169L90.0318 111.068L90.0321 105.967L90.0323 100.867L90.0326 95.7658L90.0328 90.6651C90.033 87.1179 87.7269 84.1092 84.5321 83.0567C83.4799 79.8618 80.4714 77.5554 76.9242 77.5552L71.8235 77.555L66.7228 77.5547L61.6221 77.5545C57.1991 77.5543 53.6133 81.1396 53.6131 85.5627L53.6129 90.6634Z" fill="white" stroke="white" stroke-width="16.0172" stroke-linejoin="round"/>
<path d="M48.0783 124.175C52.5013 124.175 56.087 120.59 56.0872 116.167L56.0884 91.4381C56.0886 88.1454 55.529 83.9076 52.7004 80.5696C49.6265 76.9419 45.3323 75.9805 41.8239 75.9803C40.0093 75.9802 38.0952 76.2852 36.2676 77.0536C34.5361 76.3043 32.7064 75.9799 30.9194 75.9798C29.4282 75.9797 27.7238 76.1513 26.0143 76.6998C25.5555 76.618 25.0838 76.5754 24.6031 76.5754L19.0018 76.5751C14.5788 76.5749 10.9931 80.1603 10.9929 84.5833L10.9913 116.165C10.9911 120.588 14.5765 124.173 18.9995 124.174L25.3158 124.174C26.2898 124.174 27.2232 124 28.0866 123.682C28.9501 124 29.8834 124.174 30.8574 124.174L36.2203 124.175C37.1943 124.175 38.1277 124.001 38.9912 123.682C39.8546 124.001 40.788 124.175 41.762 124.175L48.0783 124.175ZM40.018 90.4119L39.3205 90.9285L40.018 90.4119ZM41.1085 89.6042L40.089 90.3594L41.1085 89.6042Z" fill="white" stroke="white" stroke-width="16.0172" stroke-linejoin="round"/>
<path d="M158.889 19.5211C155.694 20.5733 153.388 23.5817 153.388 27.129L153.387 32.2297L153.387 37.3304L153.387 42.4311L153.387 47.5318L153.386 52.6325L153.386 57.7332C153.386 61.2804 155.692 64.2891 158.887 65.3416C159.939 68.5365 162.948 70.8429 166.495 70.8431L171.596 70.8433L176.696 70.8436L181.797 70.8438C185.344 70.844 188.353 68.5379 189.405 65.3431C192.6 64.2909 194.907 61.2824 194.907 57.7352L194.907 52.6345L194.907 47.5338L194.908 42.4331L194.908 37.3324L194.908 32.2317L194.908 27.131C194.908 23.5838 192.602 20.5751 189.408 19.5225C188.355 16.3276 185.347 14.0213 181.8 14.0211L176.699 14.0208L171.598 14.0206L166.498 14.0203C162.95 14.0202 159.942 16.3262 158.889 19.5211Z" fill="white" stroke="white" stroke-width="16.0172" stroke-linejoin="round"/>
<path d="M139.786 66.8765C141.223 69.3325 143.854 70.8421 146.699 70.8422L154.505 70.8426C157.4 70.8427 160.069 69.281 161.487 66.7578C162.905 64.2345 162.852 61.1423 161.347 58.6699L154.958 48.1755C157.98 43.7221 159.639 38.2003 160.42 32.3046C160.724 30.0172 160.025 27.7102 158.505 25.9748C156.984 24.2393 154.789 23.244 152.482 23.2439L145.927 23.2436C143.396 23.2435 141.11 24.4251 139.634 26.297L139.635 18.1426C139.635 13.7196 136.05 10.1338 131.627 10.1336L125.31 10.1333C120.887 10.1331 117.302 13.7185 117.301 18.1415L117.299 62.8322C117.299 67.2552 120.884 70.841 125.307 70.8412L131.624 70.8415C135.034 70.8416 137.947 68.7098 139.102 65.7058L139.786 66.8765Z" fill="white" stroke="white" stroke-width="16.0172" stroke-linejoin="round"/>
<path d="M83.6305 59.6212L83.6427 59.6448C85.6633 63.5287 88.6866 66.5757 92.5679 68.612C96.4013 70.6232 100.688 71.4358 105.107 71.436C109.701 71.4363 113.862 71.1201 117.456 70.3767C121.557 69.5284 124.312 65.6634 123.776 61.5097L123.061 55.968C122.784 53.819 121.648 51.874 119.912 50.5771C119.442 50.226 118.939 49.9305 118.413 49.693C121.907 48.8316 124.498 45.6771 124.498 41.9173C124.499 37.4754 123.494 32.5908 119.974 28.8668C117.615 26.3355 114.615 24.2705 110.928 23.439C108.629 22.9171 106.308 22.6458 103.977 22.6456C99.7006 22.6454 95.5303 23.5054 91.8104 25.6199C88.0568 27.7332 85.226 30.8465 83.3785 34.6976C81.5681 38.4713 80.8325 42.6567 80.8323 46.9801C80.8321 51.4394 81.6371 55.7586 83.6305 59.6212ZM103.406 46.4701C104.506 48.0594 106.167 49.2313 108.102 49.7002C107.329 49.739 106.569 49.7581 105.823 49.7581C104.882 49.758 104.358 49.6245 104.118 49.5368C103.988 49.4896 103.925 49.4509 103.892 49.4256C103.851 49.3707 103.771 49.2395 103.682 48.9681C103.549 48.5586 103.404 47.8359 103.404 46.6833C103.404 46.6103 103.405 46.5393 103.406 46.4701Z" fill="white" stroke="white" stroke-width="16.0172" stroke-linejoin="round"/>
<path d="M46.7492 37.8018C46.7491 41.2424 48.9186 44.1764 51.9643 45.3101C48.9185 46.4435 46.7487 49.3773 46.7485 52.8179L46.7483 57.8233C46.748 62.2463 50.3334 65.832 54.7564 65.8322L59.7618 65.8325L64.7672 65.8327C68.1281 65.8329 71.0057 63.7626 72.1938 60.8277L74.7781 60.8278C78.1391 60.828 81.0166 58.7578 82.2048 55.8228L84.7891 55.823C89.2121 55.8232 92.7978 52.2378 92.7981 47.8148L92.7983 42.8094C92.7985 38.3864 89.2131 34.8007 84.7901 34.8005L82.2058 34.8003C81.0179 31.8653 78.1406 29.7948 74.7796 29.7946L72.1954 29.7945C71.0075 26.8594 68.1301 24.7889 64.7692 24.7888L59.7638 24.7885L54.7584 24.7883C50.3354 24.7881 46.7497 28.3734 46.7495 32.7965L46.7492 37.8018Z" fill="white" stroke="white" stroke-width="16.0172" stroke-linejoin="round"/>
<path d="M44.745 70.8372C49.168 70.8374 52.7538 67.252 52.754 62.829L52.755 42.2713C52.7552 37.3053 51.5163 32.2775 47.953 28.3266L43.184 32.6276L47.953 28.3266C44.2758 24.2493 39.3171 22.6425 34.2599 22.6422C33.9537 22.6422 33.6436 22.6473 33.3304 22.6582L33.3306 18.1374C33.3308 13.7144 29.7454 10.1286 25.3224 10.1284L19.0061 10.1281C14.5831 10.1279 10.9974 13.7133 10.9972 18.1363L10.995 62.827C10.9948 67.25 14.5802 70.8357 19.0032 70.836L25.3195 70.8363C28.0294 70.8364 30.425 69.4905 31.8743 67.4307C33.3233 69.4907 35.7188 70.8368 38.4287 70.8369L44.745 70.8372Z" fill="white" stroke="white" stroke-width="16.0172" stroke-linejoin="round"/>
<path d="M135.051 136.181C132.615 136.97 130.691 138.894 129.902 141.329C127.467 142.118 125.543 144.042 124.753 146.477C121.54 147.519 119.216 150.536 119.216 154.097L119.216 159.245L119.215 164.393C119.215 168.817 122.801 172.402 127.224 172.402L132.372 172.403L137.52 172.403L139.808 172.403L139.808 174.691C139.808 179.114 143.394 182.7 147.817 182.7L152.965 182.7C157.388 182.701 160.974 179.115 160.974 174.692L160.974 171.878C163.985 170.727 166.123 167.811 166.123 164.396L166.123 159.247C166.123 155.832 163.985 152.916 160.975 151.764L160.975 148.95L160.975 143.802L160.976 138.654L160.976 133.505C160.976 129.082 157.391 125.497 152.968 125.496L147.819 125.496C144.259 125.496 141.241 127.819 140.199 131.033C137.764 131.822 135.84 133.746 135.051 136.181Z" fill="white" stroke="white" stroke-width="16.0172" stroke-linejoin="round"/>
<path d="M126.985 169.149C126.986 165.037 123.887 161.649 119.897 161.192C123.308 156.135 125.199 150.541 125.199 144.539C125.199 138.964 123.733 133.307 119.373 129.171C115.109 125.106 109.432 123.778 103.844 123.778C100.263 123.778 96.7282 124.358 93.4854 125.828C90.1952 127.309 87.4196 129.623 85.4816 132.79L85.4458 132.849C83.5486 136.011 82.7847 139.525 82.7846 143.047C82.7844 147.47 86.3697 151.056 90.7928 151.056L97.1686 151.057C98.5831 151.057 99.9119 150.69 101.065 150.047C100.711 150.592 100.292 151.16 99.8003 151.752L99.7977 151.755C97.4438 154.588 93.5329 157.724 87.5841 161C85.0272 162.408 83.439 165.096 83.4388 168.015L83.4385 174.689C83.4383 179.112 87.0237 182.697 91.4467 182.697L118.976 182.699C123.399 182.699 126.985 179.114 126.985 174.691L126.985 169.149Z" fill="white" stroke="white" stroke-width="16.0172" stroke-linejoin="round"/>
<path d="M52.9633 131.028C49.7497 132.07 47.426 135.087 47.4259 138.648L47.4256 143.796L47.4254 148.945L47.4251 154.093L47.4249 159.241L47.4246 164.39L47.4244 169.538C47.4242 173.099 49.7476 176.117 52.961 177.158C54.0024 180.372 57.0201 182.696 60.5807 182.696L65.729 182.696L70.8774 182.696L76.0258 182.697C79.5863 182.697 82.6042 180.373 83.646 177.16C86.8595 176.118 89.1832 173.101 89.1834 169.54L89.1836 164.392L89.1839 159.244L89.1841 154.095L89.1844 148.947L89.1846 143.798L89.1849 138.65C89.185 135.09 86.8617 132.072 83.6482 131.03C82.6068 127.816 79.5891 125.493 76.0286 125.492L70.8802 125.492L65.7318 125.492L60.5835 125.492C57.0229 125.492 54.005 127.815 52.9633 131.028Z" fill="white" stroke="white" stroke-width="16.0172" stroke-linejoin="round"/>
<path d="M55.1941 169.145C55.1943 165.033 52.0954 161.645 48.1054 161.189C51.5167 156.132 53.4074 150.537 53.4077 144.536C53.408 138.96 51.9414 133.303 47.5816 129.168C43.3173 125.102 37.6412 123.774 32.0525 123.774C28.4716 123.774 24.937 124.354 21.6941 125.825C18.4039 127.305 15.6283 129.619 13.6903 132.787L13.6546 132.846C11.7574 136.007 10.9935 139.521 10.9933 143.044C10.9931 147.467 14.5785 151.053 19.0015 151.053L25.3774 151.053C26.7918 151.053 28.1207 150.687 29.274 150.043C28.9199 150.588 28.5012 151.156 28.009 151.748L28.0064 151.751C25.6526 154.584 21.7416 157.72 15.7929 160.996C13.236 162.404 11.6477 165.092 11.6476 168.011L11.6472 174.685C11.647 179.108 15.2324 182.694 19.6554 182.694L47.1849 182.695C51.6079 182.695 55.1937 179.11 55.1939 174.687L55.1941 169.145Z" fill="white" stroke="white" stroke-width="16.0172" stroke-linejoin="round"/>
<path d="M168.162 82.8033L168.162 78.0363L172.929 78.0366L172.929 82.8036L168.162 82.8033ZM172.929 82.8036L172.929 78.0366L177.696 78.0368L177.696 82.8038L172.929 82.8036ZM177.696 82.8038L177.696 78.0368L182.463 78.037L182.463 82.804L177.696 82.8038ZM163.395 87.5701L163.395 82.8031L168.162 82.8033L168.162 87.5703L163.395 87.5701ZM182.463 87.571L182.463 82.804L187.23 82.8043L187.23 87.5713L182.463 87.571ZM158.627 92.3369L158.628 87.5699L163.395 87.5701L163.394 92.3371L158.627 92.3369ZM172.928 92.3376L172.929 87.5706L177.696 87.5708L177.695 92.3378L172.928 92.3376ZM177.695 92.3378L177.696 87.5708L182.463 87.571L182.462 92.338L177.695 92.3378ZM187.229 92.3383L187.23 87.5713L191.997 87.5715L191.996 92.3385L187.229 92.3383ZM158.627 97.1039L158.627 92.3369L163.394 92.3371L163.394 97.1041L158.627 97.1039ZM168.161 97.1044L168.161 92.3374L172.928 92.3376L172.928 97.1046L168.161 97.1044ZM177.695 97.1048L177.695 92.3378L182.462 92.338L182.462 97.1051L177.695 97.1048ZM187.229 97.1053L187.229 92.3383L191.996 92.3385L191.996 97.1055L187.229 97.1053ZM158.627 101.871L158.627 97.1039L163.394 97.1041L163.394 101.871L158.627 101.871ZM168.161 101.871L168.161 97.1044L172.928 97.1046L172.928 101.872L168.161 101.871ZM177.695 101.872L177.695 97.1048L182.462 97.1051L182.462 101.872L177.695 101.872ZM187.229 101.872L187.229 97.1053L191.996 97.1055L191.996 101.873L187.229 101.872ZM158.627 106.638L158.627 101.871L163.394 101.871L163.394 106.638L158.627 106.638ZM172.928 106.639L172.928 101.872L177.695 101.872L177.695 106.639L172.928 106.639ZM177.695 106.639L177.695 101.872L182.462 101.872L182.462 106.639L177.695 106.639ZM182.462 106.639L182.462 101.872L187.229 101.872L187.229 106.639L182.462 106.639ZM163.393 111.405L163.394 106.638L168.161 106.638L168.16 111.405L163.393 111.405ZM168.16 116.172L168.16 111.405L172.927 111.406L172.927 116.173L168.16 116.172ZM172.927 116.173L172.927 111.406L177.694 111.406L177.694 116.173L172.927 116.173ZM177.694 116.173L177.694 111.406L182.461 111.406L182.461 116.173L177.694 116.173ZM182.461 116.173L182.461 111.406L187.228 111.406L187.228 116.173L182.461 116.173Z" fill="#528F85"/>
<path d="M142.477 79.5844C141.683 79.5843 140.948 79.3857 140.272 78.9884C139.597 78.5911 139.061 78.0548 138.664 77.3795C138.266 76.7041 138.068 75.9692 138.068 75.1747C138.068 74.3802 138.266 73.6453 138.664 72.97C139.061 72.2947 139.597 71.7584 140.273 71.3612C140.948 70.964 141.683 70.7654 142.477 70.7654C143.272 70.7655 144.007 70.9641 144.682 71.3614C145.357 71.7587 145.894 72.295 146.291 72.9703C146.688 73.6457 146.887 74.3806 146.887 75.1751C146.887 75.9696 146.688 76.7045 146.291 77.3798C145.893 78.0551 145.357 78.5914 144.682 78.9886C144.006 79.3858 143.272 79.5844 142.477 79.5844ZM145.991 110.987L155.704 110.988L155.704 116.172L127.638 116.17L127.638 110.986L139.675 110.987L139.676 89.8333L129.427 89.8328L129.427 84.5891L145.992 84.5899L145.991 110.987Z" fill="#1F1F29"/>
<path d="M107.385 83.9919C110.722 83.9921 113.304 85.0052 115.131 87.0313C116.958 89.0573 117.872 91.9176 117.872 95.612L117.871 116.17L111.554 116.169L111.555 95.6117C111.555 93.6255 111.059 92.0861 110.066 90.9936C109.073 89.9011 107.682 89.3548 105.895 89.3547C100.929 89.3545 98.4463 92.3735 98.446 98.4117L98.4451 116.169L92.1288 116.168L92.1303 84.5871L97.8508 84.5873L98.357 90.3078L99.0422 90.3078C99.2211 88.1825 99.9958 86.6035 101.366 85.5707C102.737 84.5181 104.743 83.9918 107.385 83.9919Z" fill="#1F1F29"/>
<path d="M61.6214 90.6637L61.6217 85.563L66.7224 85.5633L66.7221 90.664L61.6214 90.6637ZM66.7221 90.664L66.7224 85.5633L71.8231 85.5635L71.8228 90.6642L66.7221 90.664ZM71.8228 90.6642L71.8231 85.5635L76.9238 85.5638L76.9235 90.6645L71.8228 90.6642ZM76.9233 95.7652L76.9235 90.6645L82.0242 90.6647L82.024 95.7654L76.9233 95.7652ZM61.621 100.865L61.6212 95.7644L66.7219 95.7647L66.7217 100.865L61.621 100.865ZM66.7217 100.865L66.7219 95.7647L71.8226 95.7649L71.8224 100.866L66.7217 100.865ZM71.8224 100.866L71.8226 95.7649L76.9233 95.7652L76.9231 100.866L71.8224 100.866ZM76.9231 100.866L76.9233 95.7652L82.024 95.7654L82.0238 100.866L76.9231 100.866ZM56.52 105.966L56.5203 100.865L61.621 100.865L61.6207 105.966L56.52 105.966ZM76.9228 105.967L76.9231 100.866L82.0238 100.866L82.0235 105.967L76.9228 105.967ZM56.5198 111.066L56.52 105.966L61.6207 105.966L61.6205 111.067L56.5198 111.066ZM76.9226 111.067L76.9228 105.967L82.0235 105.967L82.0233 111.068L76.9226 111.067ZM61.6202 116.167L61.6205 111.067L66.7212 111.067L66.7209 116.167L61.6202 116.167ZM66.7209 116.167L66.7212 111.067L71.8219 111.067L71.8216 116.168L66.7209 116.167ZM71.8216 116.168L71.8219 111.067L76.9226 111.067L76.9223 116.168L71.8216 116.168ZM76.9223 116.168L76.9226 111.067L82.0233 111.068L82.023 116.168L76.9223 116.168Z" fill="#AD2F55"/>
<path d="M41.8235 83.9889C44.0084 83.989 45.5974 84.575 46.5904 85.747C47.5835 86.9189 48.08 88.8158 48.0799 91.4377L48.0787 116.167L41.7624 116.166L41.7635 92.0332C41.7636 90.9209 41.565 90.0966 41.1678 89.5603C40.7706 89.024 40.1548 88.7558 39.3206 88.7558C37.2549 88.7557 36.222 90.1857 36.2218 93.046L36.2207 116.166L30.8578 116.166L30.859 91.4368C30.8591 89.6492 30.0249 88.7553 28.3565 88.7553C26.3305 88.7552 25.3175 90.1852 25.3173 93.0454L25.3162 116.165L18.9999 116.165L19.0014 84.5837L24.6027 84.5839L25.0196 88.5167L25.4963 88.5168C25.6155 86.9874 26.1122 85.8552 26.9862 85.1204C27.88 84.3656 29.1909 83.9883 30.919 83.9884C32.2696 83.9884 33.3819 84.3758 34.2558 85.1505C35.1298 85.9053 35.7156 87.0276 36.0135 88.5173L36.52 88.5173C36.6194 87.2262 37.1259 86.1537 38.0396 85.2997C38.9732 84.4257 40.2345 83.9888 41.8235 83.9889Z" fill="#1F1F29"/>
<path d="M166.497 27.1296L166.497 22.0289L171.598 22.0292L171.598 27.1299L166.497 27.1296ZM171.598 27.1299L171.598 22.0292L176.699 22.0294L176.698 27.1301L171.598 27.1299ZM176.698 27.1301L176.699 22.0294L181.799 22.0297L181.799 27.1304L176.698 27.1301ZM161.396 32.2301L161.396 27.1294L166.497 27.1296L166.497 32.2303L161.396 32.2301ZM181.799 32.2311L181.799 27.1304L186.9 27.1306L186.899 32.2313L181.799 32.2311ZM161.396 37.3308L161.396 32.2301L166.497 32.2303L166.496 37.331L161.396 37.3308ZM181.799 37.3318L181.799 32.2311L186.899 32.2313L186.899 37.332L181.799 37.3318ZM161.395 42.4315L161.396 37.3308L166.496 37.331L166.496 42.4317L161.395 42.4315ZM171.597 42.432L171.597 37.3313L176.698 37.3315L176.698 42.4322L171.597 42.432ZM181.798 42.4325L181.799 37.3318L186.899 37.332L186.899 42.4327L181.798 42.4325ZM161.395 47.5322L161.395 42.4315L166.496 42.4317L166.496 47.5324L161.395 47.5322ZM171.597 47.5327L171.597 42.432L176.698 42.4322L176.697 47.5329L171.597 47.5327ZM181.798 47.5332L181.798 42.4325L186.899 42.4327L186.899 47.5334L181.798 47.5332ZM161.395 52.6329L161.395 47.5322L166.496 47.5324L166.496 52.6331L161.395 52.6329ZM181.798 52.6339L181.798 47.5332L186.899 47.5334L186.898 52.6341L181.798 52.6339ZM161.395 57.7336L161.395 52.6329L166.496 52.6331L166.495 57.7338L161.395 57.7336ZM181.798 57.7346L181.798 52.6339L186.898 52.6341L186.898 57.7348L181.798 57.7346ZM166.495 62.8345L166.495 57.7338L171.596 57.7341L171.596 62.8348L166.495 62.8345ZM171.596 62.8348L171.596 57.7341L176.697 57.7343L176.697 62.835L171.596 62.8348ZM176.697 62.835L176.697 57.7343L181.798 57.7346L181.797 62.8353L176.697 62.835Z" fill="#45AACB"/>
<path d="M146.7 62.8336L139.103 49.8432C137.713 50.1212 136.292 50.2601 134.842 50.2601L131.625 50.2599L131.624 62.8329L125.308 62.8326L125.31 18.1419L131.626 18.1422L131.625 44.5991L133.353 44.5992C136.015 44.5993 138.18 44.1624 139.848 43.2886C141.517 42.4147 142.828 41.0145 143.781 39.0878C144.754 37.1612 145.47 34.5493 145.927 31.2522L152.481 31.2525C151.468 38.8995 148.975 44.2226 145.002 47.2216L154.506 62.834L146.7 62.8336Z" fill="#1F1F29"/>
<path d="M105.107 63.4275C101.651 63.4273 98.7118 62.7915 96.2886 61.5202C93.8655 60.2489 92.0183 58.3917 90.7472 55.9485C89.4762 53.4855 88.8407 50.4962 88.8409 46.9805C88.841 43.5443 89.4271 40.6046 90.5991 38.1616C91.7712 35.7186 93.4894 33.8615 95.7537 32.5904C98.0181 31.2995 100.759 30.6541 103.977 30.6542C105.685 30.6543 107.413 30.853 109.161 31.2503C110.929 31.6477 112.587 32.6806 114.136 34.3491C115.705 35.9978 116.49 38.5204 116.49 41.9169L109.995 41.9166C109.995 40.1488 109.469 38.7783 108.416 37.8049C107.363 36.8118 105.903 36.3151 104.036 36.315C101.295 36.3149 99.1699 37.2185 97.6602 39.026C96.1506 40.8334 95.3957 43.3857 95.3955 46.6829C95.3954 50.278 96.289 53.029 98.0766 54.9359C99.884 56.8229 102.466 57.7665 105.823 57.7667C108.802 57.7668 111.901 57.5088 115.119 56.9925L115.833 62.5342C112.953 63.1299 109.378 63.4277 105.107 63.4275Z" fill="#1F1F29"/>
<path d="M54.7578 37.8022L54.7581 32.7968L59.7634 32.7971L59.7632 37.8024L54.7578 37.8022ZM59.7632 37.8024L59.7634 32.7971L64.7688 32.7973L64.7685 37.8027L59.7632 37.8024ZM64.7683 42.8081L64.7685 37.8027L69.7739 37.8029L69.7736 42.8083L64.7683 42.8081ZM69.7736 42.8083L69.7739 37.8029L74.7793 37.8032L74.779 42.8085L69.7736 42.8083ZM74.7788 47.8139L74.779 42.8085L79.7844 42.8088L79.7841 47.8141L74.7788 47.8139ZM79.7841 47.8141L79.7844 42.8088L84.7897 42.809L84.7895 47.8144L79.7841 47.8141ZM64.7678 52.8188L64.768 47.8134L69.7734 47.8137L69.7732 52.819L64.7678 52.8188ZM69.7732 52.819L69.7734 47.8137L74.7788 47.8139L74.7785 52.8193L69.7732 52.819ZM54.7568 57.8236L54.7571 52.8183L59.7624 52.8185L59.7622 57.8239L54.7568 57.8236ZM59.7622 57.8239L59.7624 52.8185L64.7678 52.8188L64.7676 57.8241L59.7622 57.8239Z" fill="#4B0082"/>
<path d="M34.2596 30.6508C37.5965 30.651 40.1785 31.6641 42.0058 33.6902C43.8331 35.7162 44.7466 38.5765 44.7464 42.2709L44.7454 62.8286L38.4291 62.8283L38.4301 42.2706C38.4302 40.2843 37.9337 38.745 36.9407 37.6525C35.9476 36.56 34.5572 36.0137 32.7696 36.0136C27.804 36.0134 25.321 39.0324 25.3207 45.0706L25.3198 62.8277L19.0036 62.8274L19.0057 18.1367L25.322 18.137L25.3211 36.9667L25.917 36.9667C26.0959 34.8414 26.8706 33.2624 28.2411 32.2296C29.6117 31.1769 31.6178 30.6507 34.2596 30.6508Z" fill="#1F1F29"/>
<path d="M147.819 138.653L147.819 133.505L152.967 133.505L152.967 138.653L147.819 138.653ZM142.67 143.801L142.67 138.653L147.819 138.653L147.818 143.801L142.67 143.801ZM147.818 143.801L147.819 138.653L152.967 138.653L152.967 143.802L147.818 143.801ZM137.521 148.949L137.522 143.801L142.67 143.801L142.67 148.95L137.521 148.949ZM147.818 148.95L147.818 143.801L152.967 143.802L152.967 148.95L147.818 148.95ZM132.373 154.097L132.373 148.949L137.521 148.949L137.521 154.098L132.373 154.097ZM147.818 154.098L147.818 148.95L152.967 148.95L152.966 154.098L147.818 154.098ZM127.224 159.246L127.224 154.097L132.373 154.097L132.373 159.246L127.224 159.246ZM147.818 159.247L147.818 154.098L152.966 154.098L152.966 159.247L147.818 159.247ZM127.224 164.394L127.224 159.246L132.373 159.246L132.372 164.394L127.224 164.394ZM132.372 164.394L132.373 159.246L137.521 159.246L137.521 164.394L132.372 164.394ZM137.521 164.394L137.521 159.246L142.669 159.246L142.669 164.395L137.521 164.394ZM142.669 164.395L142.669 159.246L147.818 159.247L147.817 164.395L142.669 164.395ZM147.817 164.395L147.818 159.247L152.966 159.247L152.966 164.395L147.817 164.395ZM152.966 164.395L152.966 159.247L158.114 159.247L158.114 164.395L152.966 164.395ZM147.817 169.543L147.817 164.395L152.966 164.395L152.966 169.544L147.817 169.543ZM147.817 174.692L147.817 169.543L152.966 169.544L152.965 174.692L147.817 174.692Z" fill="#FCBC08"/>
<path d="M118.977 169.149L118.977 174.69L91.4471 174.689L91.4474 168.015C97.9029 164.46 102.74 160.746 105.958 156.873C109.195 152.98 110.814 148.968 110.815 144.836C110.815 139.791 108.352 137.269 103.426 137.268C101.42 137.268 99.8706 137.775 98.7781 138.788C97.7055 139.781 97.1691 141.201 97.169 143.048L90.7932 143.048C90.7933 140.684 91.2999 138.658 92.3129 136.97C93.3459 135.282 94.8356 134.001 96.7822 133.127C98.7486 132.233 101.102 131.786 103.843 131.786C108.293 131.787 111.629 132.849 113.854 134.975C116.078 137.08 117.191 140.268 117.19 144.539C117.19 148.849 115.829 152.98 113.108 156.933C110.387 160.865 106.265 164.639 100.743 168.254L100.743 169.148L118.977 169.149Z" fill="#1F1F29"/>
<path d="M60.5828 138.649L60.5831 133.5L65.7314 133.501L65.7312 138.649L60.5828 138.649ZM65.7312 138.649L65.7314 133.501L70.8798 133.501L70.8796 138.649L65.7312 138.649ZM70.8796 138.649L70.8798 133.501L76.0282 133.501L76.0279 138.649L70.8796 138.649ZM55.4342 143.797L55.4344 138.648L60.5828 138.649L60.5826 143.797L55.4342 143.797ZM76.0277 143.798L76.0279 138.649L81.1763 138.65L81.176 143.798L76.0277 143.798ZM55.4339 148.945L55.4342 143.797L60.5826 143.797L60.5823 148.945L55.4339 148.945ZM76.0274 148.946L76.0277 143.798L81.176 143.798L81.1758 148.946L76.0274 148.946ZM55.4337 154.093L55.4339 148.945L60.5823 148.945L60.5821 154.094L55.4337 154.093ZM65.7304 154.094L65.7307 148.946L70.8791 148.946L70.8788 154.094L65.7304 154.094ZM76.0272 154.094L76.0274 148.946L81.1758 148.946L81.1755 154.095L76.0272 154.094ZM55.4334 159.242L55.4337 154.093L60.5821 154.094L60.5818 159.242L55.4334 159.242ZM65.7302 159.242L65.7304 154.094L70.8788 154.094L70.8785 159.243L65.7302 159.242ZM76.0269 159.243L76.0272 154.094L81.1755 154.095L81.1753 159.243L76.0269 159.243ZM55.4332 164.39L55.4334 159.242L60.5818 159.242L60.5816 164.39L55.4332 164.39ZM76.0267 164.391L76.0269 159.243L81.1753 159.243L81.175 164.391L76.0267 164.391ZM55.4329 169.539L55.4332 164.39L60.5816 164.39L60.5813 169.539L55.4329 169.539ZM76.0264 169.54L76.0267 164.391L81.175 164.391L81.1748 169.54L76.0264 169.54ZM60.5811 174.687L60.5813 169.539L65.7297 169.539L65.7294 174.687L60.5811 174.687ZM65.7294 174.687L65.7297 169.539L70.878 169.539L70.8778 174.688L65.7294 174.687ZM70.8778 174.688L70.878 169.539L76.0264 169.54L76.0262 174.688L70.8778 174.688Z" fill="#45AACB"/>
<path d="M47.1856 169.145L47.1853 174.687L19.6558 174.685L19.6561 168.011C26.1116 164.456 30.9483 160.742 34.1663 156.869C37.4041 152.976 39.023 148.964 39.0232 144.833C39.0235 139.788 36.5607 137.265 31.6347 137.265C29.6286 137.265 28.0793 137.771 26.9868 138.784C25.9142 139.777 25.3779 141.197 25.3778 143.045L19.0019 143.044C19.002 140.681 19.5086 138.655 20.5217 136.966C21.5546 135.278 23.0444 133.997 24.9909 133.123C26.9574 132.229 29.3111 131.783 32.0521 131.783C36.5013 131.783 39.8382 132.846 42.0627 134.971C44.2872 137.077 45.3993 140.265 45.3991 144.535C45.3989 148.845 44.0381 152.977 41.3168 156.929C38.5954 160.862 34.4738 164.636 28.9518 168.25L28.9518 169.144L47.1856 169.145Z" fill="#1F1F29"/>
</g>
<defs>
<filter id="filter0_d_179_128" x="0.511359" y="0.883808" width="209.974" height="193.532" filterUnits="userSpaceOnUse" color-interpolation-filters="sRGB">
<feFlood flood-opacity="0" result="BackgroundImageFix"/>
<feColorMatrix in="SourceAlpha" type="matrix" values="0 0 0 0 0 0 0 0 0 0 0 0 0 0 0 0 0 0 127 0" result="hardAlpha"/>
<feOffset dy="1.23571"/>
<feGaussianBlur stdDeviation="1.23571"/>
<feComposite in2="hardAlpha" operator="out"/>
<feColorMatrix type="matrix" values="0 0 0 0 0 0 0 0 0 0 0 0 0 0 0 0 0 0 0.25 0"/>
<feBlend mode="normal" in2="BackgroundImageFix" result="effect1_dropShadow_179_128"/>
<feBlend mode="normal" in="SourceGraphic" in2="effect1_dropShadow_179_128" result="shape"/>
</filter>
</defs>
</svg>
