<svg width="1827" height="202" viewBox="0 0 1827 202" fill="none" xmlns="http://www.w3.org/2000/svg">
<path d="M1381.6 128.249L1381.43 129.586L1381.6 130.421L1383.27 130.756L1385.61 130.923L1391.96 130.756H1405.5L1414.02 130.923H1416.69L1436.25 130.589L1438.92 130.421L1444.44 129.92H1447.28L1449.45 130.421L1450.45 131.926L1450.79 134.265L1450.96 136.772L1451.12 139.446V146.298L1451.46 150.477L1451.29 153.151L1451.12 155.49L1450.79 157.162L1450.12 158.164L1449.12 158.666L1443.77 159.501L1441.43 159.669L1437.75 159.501L1435.25 159.334L1423.04 158.666H1413.69L1398.98 159.501H1374.75L1362.55 159.334L1353.19 159L1351.18 158.833L1350.01 158.164L1349.68 157.162L1349.51 155.323L1349.84 145.296V142.622L1349.34 132.427L1349.51 129.753L1350.01 124.739L1351.01 119.725L1351.52 117.051L1352.35 114.21L1353.19 111.536L1353.69 110.199L1354.86 107.525L1356.19 105.353L1359.04 102.344L1360.87 100.673L1363.88 98.3333L1365.89 96.9963L1369.23 94.8237L1371.4 93.6538L1374.91 91.9826L1377.42 91.1469L1381.6 89.8099L1384.44 89.1414L1387.28 88.64L1389.95 88.3058L1398.48 87.8044L1399.98 87.6373L1402.99 87.4702L1407.17 87.303L1410.18 86.6345L1411.51 85.966L1414.02 84.4619L1415.19 83.292L1416.69 81.1194L1417.7 77.6097V73.933L1417.36 72.596L1416.53 69.9219L1415.86 68.7521L1414.19 66.7466L1412.01 65.7438L1408.34 64.7411L1406 64.4068L1403.49 64.2397H1400.98L1398.64 64.4068L1396.3 64.9082L1392.8 66.078L1390.62 67.2479L1389.62 67.9164L1387.95 69.7548L1387.11 70.7576L1385.94 73.2645L1385.11 75.6042L1383.6 76.607L1381.1 77.2755H1379.59L1376.75 77.4426L1369.73 77.1084H1362.71L1359.87 76.9412L1355.53 76.4399L1353.35 76.1056L1352.18 75.4371L1351.68 74.6015V71.7603L1352.02 69.2534L1352.35 67.7493L1352.85 65.0753L1353.19 63.9054L1354.02 61.3985L1355.69 58.2231L1357.03 55.8834L1358.53 53.7107L1360.37 51.5381L1362.38 49.6997L1364.38 48.0285L1367.56 45.8558L1369.9 44.5188L1374.91 41.8448L1377.75 40.6749L1380.43 39.8393L1384.1 39.0037L1386.78 38.5023L1389.29 38.0009L1391.63 37.6667L1395.3 37.4995L1397.98 37.3324H1403.49L1407.34 37.1653H1410.01L1412.52 37.3324L1415.02 37.8338L1418.53 38.6694L1421.04 39.5051L1426.39 41.1763L1428.89 42.0119L1431.4 43.0147L1434.91 44.686L1437.25 46.023L1439.42 47.8613L1441.6 50.034L1443.43 52.2066L1445.11 54.3792L1447.28 57.3875L1448.45 59.7273L1449.62 62.2342L1450.45 64.7411L1451.29 67.0808L1451.79 69.5877L1452.29 73.5987V76.1056L1452.12 79.7824L1451.79 82.1221L1450.96 85.966L1450.29 88.4729L1449.28 91.314L1448.11 93.8209L1446.28 96.9963L1444.77 99.169L1442.6 102.01L1440.76 103.848L1438.09 106.355L1435.91 107.692L1432.4 109.531L1429.9 110.534L1427.06 111.369L1424.38 112.205L1421.54 112.706L1418.87 113.208L1415.02 113.542L1412.35 113.876L1409.51 114.377L1406.83 114.879L1402.82 115.213L1399.98 115.38H1398.64L1395.64 115.547H1394.3L1391.46 116.049L1390.12 116.55L1387.61 117.72L1386.61 118.556L1384.77 120.394L1383.44 122.399L1382.43 124.739L1382.1 126.076L1381.6 128.249ZM1632.29 128.249L1632.12 129.586L1632.29 130.421L1633.96 130.756L1636.3 130.923L1642.65 130.756H1656.19L1664.71 130.923H1667.38L1686.94 130.589L1689.61 130.421L1695.13 129.92H1697.97L1700.14 130.421L1701.14 131.926L1701.48 134.265L1701.64 136.772L1701.81 139.446V146.298L1702.15 150.477L1701.98 153.151L1701.81 155.49L1701.48 157.162L1700.81 158.164L1699.81 158.666L1694.46 159.501L1692.12 159.669L1688.44 159.501L1685.93 159.334L1673.73 158.666H1664.37L1649.67 159.501H1625.43L1613.23 159.334L1603.88 159L1601.87 158.833L1600.7 158.164L1600.37 157.162L1600.2 155.323L1600.53 145.296V142.622L1600.03 132.427L1600.2 129.753L1600.7 124.739L1601.7 119.725L1602.2 117.051L1603.04 114.21L1603.88 111.536L1604.38 110.199L1605.55 107.525L1606.88 105.353L1609.72 102.344L1611.56 100.673L1614.57 98.3333L1616.58 96.9963L1619.92 94.8237L1622.09 93.6538L1625.6 91.9826L1628.11 91.1469L1632.29 89.8099L1635.13 89.1414L1637.97 88.64L1640.64 88.3058L1649.17 87.8044L1650.67 87.6373L1653.68 87.4702L1657.86 87.303L1660.86 86.6345L1662.2 85.966L1664.71 84.4619L1665.88 83.292L1667.38 81.1194L1668.39 77.6097V73.933L1668.05 72.596L1667.22 69.9219L1666.55 68.7521L1664.88 66.7466L1662.7 65.7438L1659.03 64.7411L1656.69 64.4068L1654.18 64.2397H1651.67L1649.33 64.4068L1646.99 64.9082L1643.48 66.078L1641.31 67.2479L1640.31 67.9164L1638.64 69.7548L1637.8 70.7576L1636.63 73.2645L1635.8 75.6042L1634.29 76.607L1631.79 77.2755H1630.28L1627.44 77.4426L1620.42 77.1084H1613.4L1610.56 76.9412L1606.21 76.4399L1604.04 76.1056L1602.87 75.4371L1602.37 74.6015V71.7603L1602.71 69.2534L1603.04 67.7493L1603.54 65.0753L1603.88 63.9054L1604.71 61.3985L1606.38 58.2231L1607.72 55.8834L1609.22 53.7107L1611.06 51.5381L1613.07 49.6997L1615.07 48.0285L1618.25 45.8558L1620.59 44.5188L1625.6 41.8448L1628.44 40.6749L1631.12 39.8393L1634.79 39.0037L1637.47 38.5023L1639.97 38.0009L1642.31 37.6667L1645.99 37.4995L1648.66 37.3324H1654.18L1658.02 37.1653H1660.7L1663.2 37.3324L1665.71 37.8338L1669.22 38.6694L1671.73 39.5051L1677.08 41.1763L1679.58 42.0119L1682.09 43.0147L1685.6 44.686L1687.94 46.023L1690.11 47.8613L1692.28 50.034L1694.12 52.2066L1695.79 54.3792L1697.97 57.3875L1699.14 59.7273L1700.31 62.2342L1701.14 64.7411L1701.98 67.0808L1702.48 69.5877L1702.98 73.5987V76.1056L1702.81 79.7824L1702.48 82.1221L1701.64 85.966L1700.98 88.4729L1699.97 91.314L1698.8 93.8209L1696.96 96.9963L1695.46 99.169L1693.29 102.01L1691.45 103.848L1688.78 106.355L1686.6 107.692L1683.09 109.531L1680.59 110.534L1677.74 111.369L1675.07 112.205L1672.23 112.706L1669.56 113.208L1665.71 113.542L1663.04 113.876L1660.2 114.377L1657.52 114.879L1653.51 115.213L1650.67 115.38H1649.33L1646.33 115.547H1644.99L1642.15 116.049L1640.81 116.55L1638.3 117.72L1637.3 118.556L1635.46 120.394L1634.12 122.399L1633.12 124.739L1632.79 126.076L1632.29 128.249Z" fill="black"/>
<path d="M1816.5 116.55L1816.66 119.391V122.232L1816.5 125.073L1816.33 127.747L1815.66 131.424L1814.99 133.764L1813.32 137.107L1811.98 139.446L1810.48 141.786L1806.8 146.131L1804.8 147.97L1799.78 151.814L1797.28 153.318L1794.6 154.822L1791.93 155.992L1789.42 157.162L1786.08 158.331L1783.57 159.167L1780.73 160.003L1778.06 160.504L1774.38 160.671L1772.04 160.838L1768.36 160.671H1766.02L1762.35 160.337L1759.67 160.17L1756.83 159.836L1751.48 159.501L1748.81 159.167L1744.8 158.331L1742.29 157.663L1739.78 156.66L1737.45 155.49L1733.94 153.485L1731.76 151.981L1729.09 149.808L1727.25 148.137L1724.91 145.296L1723.24 143.29L1721.74 140.783L1720.4 138.444L1719.06 135.101L1718.39 132.761L1717.56 129.084L1717.22 126.41L1717.06 123.569L1717.39 121.062L1718.56 119.893L1720.57 119.558L1724.41 119.224L1732.1 119.725H1734.77L1742.29 119.224H1746.3L1748.48 119.725L1749.65 120.728L1750.48 122.901L1751.48 125.742L1753.16 128.249L1754.99 130.087L1757.17 131.591L1759.67 132.427L1762.01 133.096L1765.69 133.263H1768.03L1771.71 133.096L1774.21 132.427L1776.89 131.257L1779.56 129.753L1781.73 127.413L1782.9 124.739L1783.4 122.065L1783.57 119.057L1782.9 116.383L1782.57 115.38L1781.07 113.208L1779.23 111.369L1777.05 109.698L1774.38 108.528L1771.71 107.86L1767.86 107.358L1765.36 107.191L1760.17 107.525L1756.5 107.86L1745.3 107.191H1742.63L1722.74 107.525L1720.57 107.024L1719.4 105.687L1719.23 103.514L1719.06 93.4867V90.8127L1719.23 80.7851V78.1111L1718.73 68.0836V65.4096L1719.23 55.382L1719.06 52.5409L1718.56 46.8586L1718.39 44.1846L1718.56 42.6804L1719.06 40.1736L1720.57 38.8365L1722.57 38.5023H1726.08L1732.43 39.0037H1735.11L1744.8 38.5023L1747.47 38.3352L1757.17 38.168L1772.21 39.1708L1781.9 38.8365H1796.61L1801.62 38.5023L1806.64 38.8365L1808.47 39.1708L1809.64 39.6722L1810.48 40.6749L1810.81 42.6804L1810.98 43.8503L1811.15 46.3572L1810.81 51.371V56.719L1810.65 59.393L1810.14 62.2342L1809.81 64.7411L1808.64 66.078L1806.47 66.4123L1805.13 66.5794H1802.46L1795.44 66.7466H1792.76L1779.06 66.5794H1768.03L1760.17 66.078H1757.33L1754.49 66.2452L1751.99 66.9137L1750.65 68.2507L1750.31 70.2562L1750.15 75.27L1750.48 77.6097L1751.48 79.6152L1753.49 80.7851L1755.83 81.1194L1765.19 80.618H1768.03L1772.21 80.9523L1777.56 81.2865L1780.06 81.6208L1784.24 82.1221L1789.59 83.1249L1792.1 83.9605L1795.6 85.4646L1798.11 86.8017L1800.62 88.3058L1802.79 89.8099L1807.47 93.6538L1809.81 96.495L1811.31 98.5005L1812.48 101.007L1813.49 103.681L1814.82 107.358L1815.33 110.032L1816.16 113.876L1816.5 116.55Z" fill="#AD2831"/>
<path d="M1527.05 160.162C1517.76 160.162 1510.12 153.101 1509.21 144.053C1502.16 149.803 1491.77 149.394 1485.2 142.826C1478.63 136.257 1478.22 125.862 1483.97 118.817C1474.92 117.901 1467.86 110.261 1467.86 100.972C1467.86 91.6826 1474.92 84.0426 1483.97 83.1274C1478.22 76.0823 1478.63 65.6866 1485.2 59.1181C1491.77 52.5495 1502.16 52.1406 1509.21 57.8913C1510.12 48.8433 1517.76 41.7816 1527.05 41.7816C1536.34 41.7816 1543.98 48.8433 1544.9 57.8913C1551.94 52.1406 1562.34 52.5495 1568.91 59.1181C1575.48 65.6866 1575.88 76.0823 1570.13 83.1274C1579.18 84.0426 1586.24 91.6826 1586.24 100.972C1586.24 110.261 1579.18 117.901 1570.13 118.817C1575.88 125.862 1575.48 136.257 1568.91 142.826C1562.34 149.394 1551.94 149.803 1544.9 144.053C1543.98 153.101 1536.34 160.162 1527.05 160.162Z" fill="#6C92EB"/>
<path d="M1528.79 160.162C1519.5 160.162 1511.86 153.101 1510.95 144.053C1503.9 149.803 1493.51 149.394 1486.94 142.826C1480.37 136.257 1479.96 125.862 1485.71 118.817C1476.66 117.901 1469.6 110.261 1469.6 100.972C1469.6 91.6826 1476.66 84.0426 1485.71 83.1274C1479.96 76.0823 1480.37 65.6866 1486.94 59.1181C1493.51 52.5495 1503.9 52.1406 1510.95 57.8913C1511.86 48.8433 1519.5 41.7816 1528.79 41.7816C1538.08 41.7816 1545.72 48.8433 1546.64 57.8913C1553.68 52.1406 1564.08 52.5495 1570.65 59.1181C1577.22 65.6866 1577.62 76.0823 1571.87 83.1274C1580.92 84.0426 1587.98 91.6826 1587.98 100.972C1587.98 110.261 1580.92 117.901 1571.87 118.817C1577.62 125.862 1577.22 136.257 1570.65 142.826C1564.08 149.394 1553.68 149.803 1546.64 144.053C1545.72 153.101 1538.08 160.162 1528.79 160.162Z" fill="#6C92EB"/>
<path d="M117.123 133.366V144.781L117.289 147.427L117.62 151.563L117.785 154.045L117.62 156.361L116.793 158.511L115.635 159.669L113.815 159.835L111.168 160.165L102.235 159.669H99.588L90.8203 160.331H88.1734L85.8574 159.835L84.8649 158.511L84.534 156.195L83.8723 145.442L83.7069 142.795L84.0377 132.043V129.396L83.7069 118.808V116.492L83.0451 115.169L81.2254 114.507H77.2551L70.638 115.003L67.9911 115.169L54.7569 114.838L45.8237 114.342L43.6731 114.507L42.1843 115.003L41.3571 116.492L41.1917 118.808L41.3571 129.396V132.043L41.0263 142.795L41.1917 145.442L41.8534 152.556V156.361L41.1917 158.677L39.7029 160L37.5523 160.496L35.0709 160.662L32.5894 160.496L25.6414 159.835L22.9946 159.669L15.2194 160.165L12.5726 160H11.2491L9.42943 159.669L8.106 159.007L7.44429 158.18L7.11343 156.361L6.948 154.872V152.225L7.27886 147.262V133.366L7.60972 124.598V121.951L7.77514 113.184V110.537L7.27886 101.769V99.1223L7.11343 90.3546V78.94L7.27886 76.2931L7.77514 67.5254L7.94057 64.8786L7.77514 56.1109L7.60972 53.464L6.78257 47.8394V44.3654L7.44429 42.3803L8.93314 41.2223L11.0837 40.726L13.5651 40.5606H16.0466L22.9946 40.8914H25.6414L32.2586 40.3951H34.9054L37.3869 40.5606L39.5374 40.8914L40.8609 42.2149L41.5226 44.3654L41.688 45.5234V48.0048L41.1917 55.4491L41.0263 58.096L40.8609 68.8489V82.414L41.0263 84.3991L41.5226 85.7226L42.3497 86.3843L44.004 86.5497L46.32 86.7151H48.636L54.9223 85.7226L57.4037 85.5571L67.9911 85.888L77.7514 86.5497H80.2329L81.3909 86.3843L83.2106 85.3917L83.8723 84.0683L84.0377 82.2486L84.6994 71.4957V68.8489L84.3686 58.096V55.4491L84.2031 44.6963L84.6994 42.0494L86.0229 40.5606L88.008 40.2297H90.6549L99.588 40.726H102.235L109.679 40.2297L112.326 40.3951H113.815L115.965 40.726L117.289 42.0494L117.951 44.3654V46.8469L117.454 53.464L117.289 56.1109L117.785 64.8786V67.5254L117.454 76.2931V78.94L118.116 87.7077V90.3546L117.454 99.1223V101.769L117.123 110.537V113.184L117.289 121.951V124.598L117.123 133.366ZM380.378 143.953V144.946L379.055 146.269L376.077 148.916L374.092 150.405L370.949 152.721L368.964 154.045L365.655 155.864L363.505 157.022L359.7 158.842L357.218 159.669L354.406 160.496L351.594 160.993L347.458 161.82L341.668 162.481L338.69 162.647L334.555 162.978H325.952L323.14 162.812L320.328 162.481L317.516 161.985L314.703 161.323L312.222 160.496L304.778 158.511L301.138 157.188L298.988 156.195L295.844 154.375L293.859 152.887L291.709 151.398L289.393 149.909L285.092 146.269L283.106 144.284L281.287 142.134L279.467 139.652L277.978 137.336L276.655 135.02L275.497 132.704L273.842 129.23L271.361 122.282L270.203 118.974L268.549 114.011L268.218 111.529L268.052 107.725L268.218 105.243L268.383 102.596V99.784L268.714 94.1594L268.88 91.5126L269.376 89.0311L270.038 85.3917L270.699 82.9103L271.526 80.4289L272.354 78.1129L273.512 74.8043L274.67 72.4883L275.828 70.0069L277.151 67.5254L278.64 65.044L280.129 62.728L281.783 60.5774L283.603 58.2614L285.588 56.1109L287.573 54.2911L289.724 52.4714L291.709 50.8171L297.002 47.1777L299.153 45.8543L301.469 44.5309L306.432 42.2149L309.244 41.2223L311.891 40.3951L317.516 39.0717L320.328 38.5754L323.14 38.2446L328.268 37.9137L331.908 37.5829L334.389 37.7483L338.029 37.9137L344.15 38.7408L346.466 39.2371L350.27 39.8989L356.06 41.5531L358.376 42.5457L362.016 44.6963L364.332 46.0197L368.633 48.9974L373.761 52.6368L375.581 53.9603L376.574 54.7874L377.732 55.9454L378.062 57.2688L377.897 58.5923L376.904 59.9157L375.416 61.7354L373.596 63.5551L371.776 65.2094L369.956 66.6983L368.137 68.518L365.324 71.8266L363.505 73.8117L362.678 74.6389L361.189 75.9623L360.031 76.4586L358.873 76.624L357.715 76.2931L355.895 75.3006L352.752 72.9846L350.601 71.8266L346.962 70.1723L344.646 69.3451L341.006 68.3526L338.525 67.8563L334.389 67.5254H331.742L328.103 67.8563L325.456 68.518L321.817 69.676L319.335 70.6686L317.185 71.4957L313.876 73.15L311.56 74.8043L310.402 75.7969L308.417 77.9474L306.928 80.2634L305.77 82.414L304.612 84.73L303.62 87.2114L302.792 89.8583L302.296 92.6706L301.965 95.152L301.634 100.115V102.762L301.8 106.897L301.965 109.379L302.792 113.184L303.62 115.665L304.778 118.477L306.101 120.959L308.582 124.598L310.402 126.583L313.545 129.23L315.696 130.719L319.004 132.373L321.486 133.366L325.125 134.359L327.772 134.855L331.742 135.02H335.547L337.863 134.524L339.187 134.193L341.668 133.366L345.804 131.877L348.451 130.719L350.932 129.561L353.083 128.403L356.226 126.418L358.376 124.764L360.031 123.606L361.023 123.275L362.512 123.606L364.332 124.764L366.152 126.418L366.813 127.411L368.468 129.23L371.114 132.539L372.769 134.524L377.235 139.652L378.724 141.637L379.551 142.465L380.378 143.953ZM496.402 149.413L503.681 156.691L504.508 158.18L504.012 159.007L503.515 160L502.357 160.662H500.207L491.274 160H488.627L478.205 159.835H475.558L464.971 160.331L462.985 160.165L461.497 159.007L455.707 152.556L454.218 150.571L449.089 143.292L447.601 141.472L441.149 135.02L439.495 133.035L434.035 126.583L432.712 124.764L431.885 123.275L430.727 122.779L429.734 123.44L429.403 125.591V137.005L429.073 145.939V148.585L429.238 152.556V155.037L429.073 157.519L428.907 159.173L428.08 159.835L426.095 160.165L420.967 160.496H415.838L408.229 159.835L405.582 160L397.31 160.662L395.987 160.165L395.325 159.173L395.16 157.684L394.994 155.368V152.721L395.16 148.585L395.325 145.773L394.663 136.84V125.26L394.829 122.613L395.325 113.515L395.491 110.868V99.2877L395.16 90.3546V87.7077L395.491 78.6091V75.9623L395.16 55.4491V52.8023L395.656 43.8691L395.821 41.884L396.318 41.0568L397.972 40.726L400.453 40.8914L405.582 41.3877H408.229L415.838 40.726H418.485L426.095 41.2223L427.915 41.3877L428.742 41.884L429.238 43.2074L429.403 44.8617L429.238 47.0123L428.742 52.4714L428.576 55.1183L429.073 63.886V66.5329L429.238 75.3006L429.569 77.1203L430.892 77.4511L432.712 76.2931L437.84 69.1797L446.773 58.4269L451.902 51.3134L453.556 49.3283L459.346 42.7111L460.669 41.3877L462.324 41.0568L469.933 40.5606H472.58L482.671 41.2223L488.958 41.3877H491.605L497.891 41.2223L499.711 41.3877L500.538 42.0494L500.869 42.3803L500.703 42.8766L499.38 44.3654L493.093 51.3134L491.439 53.2986L485.649 60.9083L483.995 62.8934L477.543 70.0069L475.889 71.992L469.768 79.2709L468.114 81.256L462.158 88.5349L460.339 90.52L456.203 94.3249L454.383 96.31L453.556 97.3026L452.729 98.626L453.06 99.6186L454.218 101.107L460.339 109.213L462.158 111.199L469.437 118.477L471.091 120.463L477.543 128.403L479.197 130.388L485.98 137.998L487.634 139.983L494.748 147.427L496.402 149.413ZM816.21 136.178L815.879 144.946L816.045 147.593L816.707 152.721L816.872 155.203L816.707 156.526L816.541 158.346L815.714 159.669L814.722 160.496L812.902 160.827L810.42 160.993H807.774L801.156 160.496L798.344 160.331H794.208L791.231 160.165L785.11 159.338L783.952 159.007L783.29 158.18L783.125 156.526L782.959 154.21L782.794 151.729L783.125 146.104V130.554L782.628 120.132V117.485L783.29 107.228V94.3249L782.959 92.3397L781.967 91.678H780.974L779.816 93.1669L778.162 95.4829L771.214 103.423L761.123 115.5L754.505 123.771L753.017 125.095L751.859 125.591H750.535L748.715 125.26L746.73 124.764L744.911 123.44L736.639 113.515L730.518 105.409L728.864 103.423L720.262 93.8286L718.111 91.678L717.119 92.0089L716.788 93.8286L716.291 104.251V106.897L716.953 117.319V119.966L717.284 130.388V133.035L717.119 143.292V145.773L717.284 150.736L717.119 153.383L716.953 156.195L716.622 158.346L715.961 159.338L714.803 159.669L710.501 160.165L707.855 160.331L701.403 159.835L698.756 160L690.815 160.662H687.011L685.025 160.331L684.033 159.338L683.702 158.18L683.371 156.526V152.721L683.702 147.593V122.117L683.371 113.349V110.702L683.537 101.935L683.371 99.2877L682.875 90.3546V87.7077L683.371 78.94L683.537 76.2931L682.875 67.5254L683.04 64.8786L683.702 56.1109V53.464L683.04 47.3431V44.6963L683.371 42.5457L684.033 41.3877L685.025 40.5606L686.349 40.2297L688.499 40.0643L691.312 40.3951L694.951 41.2223H697.598L702.726 40.726L705.539 40.3951L708.02 40.2297L714.306 40.3951H716.457L718.277 41.2223L719.931 43.042L725.721 49.4937L727.375 51.6443L732.173 58.4269L733.827 60.5774L739.286 67.0291L740.94 69.3451L746.069 75.7969L747.723 77.6166L749.212 78.4437H750.866L752.355 77.6166L753.844 75.9623L758.807 69.3451L760.461 67.0291L765.755 60.5774L767.409 58.4269L773.199 51.9751L774.853 49.8246L779.154 44.5309L780.478 42.7111L781.801 41.3877L783.455 40.5606L785.606 40.726L794.374 41.2223L802.149 41.3877H804.796L809.759 41.0568L812.571 41.2223L814.556 41.5531L815.714 41.884L816.707 42.7111L817.038 44.0346L816.872 46.0197L816.21 53.464L816.045 56.1109L816.376 64.8786V67.5254L816.21 76.2931V78.94L816.376 87.7077V90.3546L817.038 99.2877V101.935L816.376 110.702V113.349L816.872 122.117V124.764L816.21 133.531V136.178ZM1085.36 56.7726L1084.86 66.5329L1084.7 69.1797V93.6631L1085.19 103.258V105.905L1085.52 127.741V130.554L1085.36 131.877L1085.19 134.689L1084.7 142.63L1084.86 152.225L1084.7 154.541L1084.04 156.526L1082.71 158.346L1081.06 159.504L1079.57 160L1077.25 160.165L1068.82 160.496L1066.17 160.662L1062.03 160.827H1059.39L1057.24 160.331L1055.25 159.504L1053.27 158.015L1051.78 155.864L1049.3 151.067L1047.81 148.916L1041.35 140.81L1039.7 138.825L1033.25 130.885L1031.76 128.734L1025.97 120.132L1024.48 118.147L1018.03 110.206L1016.38 108.221L1010.25 100.115L1008.77 98.7914L1007.61 99.2877L1007.11 101.273L1006.78 109.544V112.191L1006.95 120.463V123.109L1007.11 132.373V135.02L1006.61 144.284L1006.78 146.931L1007.77 153.548L1007.94 156.195L1007.44 158.346L1006.28 159.504L1005.13 159.835L1003.14 160.165L1001.82 160.331L999.005 160.496L991.395 160.331H988.748L981.966 160.662H979.319L976.838 160.496L975.018 160.165L973.694 159.338L973.033 158.18L972.702 156.526L972.536 155.368V152.887L972.867 147.427L973.033 144.781L972.536 136.013V133.366L972.867 113.184L973.033 110.537L973.529 101.769L973.694 99.1223V87.7077L973.033 78.94V76.2931L973.694 67.5254L973.529 64.8786L972.867 55.9454L972.702 53.2986V49.4937L972.867 47.0123L973.198 44.5309L973.529 42.7111L974.025 41.5531L975.018 41.0568L976.838 40.726L981.8 40.3951L986.763 40.726H999.17L1001.16 40.8914L1001.98 41.5531L1002.98 43.042L1009.92 50.4863L1011.58 52.4714L1017.7 60.412L1019.35 62.3971L1025.47 70.5031L1027.13 72.4883L1033.08 80.7597L1034.57 82.7449L1040.86 90.6854L1042.51 92.6706L1048.47 100.942L1049.79 102.1L1051.12 102.265L1052.27 101.438V99.6186L1051.12 92.6706L1050.95 90.0237L1051.45 82.9103V80.2634L1050.78 70.1723V67.5254L1051.45 57.4343L1051.28 54.7874L1050.78 48.6666V44.5309L1051.28 42.3803L1051.94 41.0568L1053.1 40.3951L1055.09 40.0643H1056.57L1059.39 39.8989L1066.83 40.3951H1069.48L1075.1 40.0643L1077.58 40.2297L1081.39 40.3951L1083.21 40.726L1084.37 41.2223L1085.36 42.3803L1085.69 44.6963L1085.86 46.1851L1086.02 48.9974L1085.69 54.1257L1085.36 56.7726ZM1142.31 124.764L1142.81 133.697V136.344L1142.15 145.277V147.924L1141.98 157.022V158.842L1141.49 159.669L1140.16 160.165L1137.85 160.331L1129.41 160.165H1119.15L1110.88 159.504L1109.89 159.173L1109.39 158.677V157.022L1109.06 152.887V150.24L1108.9 147.758V145.277L1108.4 136.344L1108.57 133.697L1109.06 124.764L1109.23 122.117L1108.73 113.018V110.371L1108.57 101.438V87.2114L1108.4 78.1129V75.466L1108.57 66.5329V52.306L1108.24 43.2074L1108.73 41.3877L1109.72 40.726L1111.38 40.5606H1112.7L1115.18 40.3951L1119.15 40.5606H1121.8L1129.41 40.2297H1139.67L1141.49 40.5606L1141.82 41.5531L1141.98 43.3728L1142.31 47.674L1142.48 50.3208V66.5329L1142.64 75.466V78.1129L1142.48 87.2114V89.8583L1142.64 98.7914V101.438L1142.31 110.371V124.764Z" fill="black"/>
<path d="M564.504 74.5037L520 99.5L564.504 124.496L589.5 169L614.496 124.496L659 99.5L614.496 74.5037L589.5 30L564.504 74.5037Z" fill="#6C92EB"/>
<path fill-rule="evenodd" clip-rule="evenodd" d="M200.414 41.4133C198.239 36.8622 191.761 36.8623 189.586 41.4133L136.749 151.996C134.846 155.978 137.749 160.583 142.163 160.583H247.837C252.251 160.583 255.154 155.978 253.251 151.996L200.414 41.4133ZM175.11 96.9731L195 102.556L214.89 96.9731L209.307 116.863L214.89 136.754L195 131.171L175.11 136.754L180.692 116.863L175.11 96.9731Z" fill="#AD2831"/>
<path fill-rule="evenodd" clip-rule="evenodd" d="M1291.84 160.5H1306.84C1311.25 160.5 1314.15 155.896 1312.25 151.913L1259.41 41.3305C1257.24 36.7795 1250.76 36.7795 1248.59 41.3305L1246.5 45.6968L1297.25 151.913C1299.15 155.896 1296.25 160.5 1291.84 160.5Z" fill="#FCBC08"/>
<path fill-rule="evenodd" clip-rule="evenodd" d="M899.414 41.3305C897.239 36.7795 890.761 36.7795 888.586 41.3305L835.749 151.913C833.846 155.896 836.749 160.5 841.163 160.5H946.837C951.251 160.5 954.154 155.896 952.251 151.913L899.414 41.3305ZM868 116.5L884.969 106.969L894.5 90.0001L904.031 106.969L921 116.5L904.031 126.031L894.5 143L884.969 126.031L868 116.5Z" fill="#4C956C"/>
<path fill-rule="evenodd" clip-rule="evenodd" d="M1231.26 41.4133C1229.08 36.8622 1222.61 36.8623 1220.43 41.4133L1167.59 151.996C1165.69 155.978 1168.59 160.583 1173.01 160.583H1278.68C1283.1 160.583 1286 155.978 1284.1 151.996L1231.26 41.4133ZM1218.26 134.687C1218.62 138.279 1221.66 141.083 1225.34 141.083C1229.03 141.083 1232.07 138.279 1232.43 134.687C1235.23 136.97 1239.35 136.808 1241.96 134.2C1244.57 131.592 1244.73 127.465 1242.45 124.668C1246.04 124.304 1248.84 121.271 1248.84 117.583C1248.84 113.895 1246.04 110.861 1242.45 110.498C1244.73 107.701 1244.57 103.574 1241.96 100.966C1239.35 98.3579 1235.23 98.1956 1232.43 100.479C1232.07 96.8865 1229.03 94.0828 1225.34 94.0828C1221.66 94.0828 1218.62 96.8865 1218.26 100.479C1215.46 98.1956 1211.34 98.3579 1208.73 100.966C1206.12 103.574 1205.96 107.701 1208.24 110.498C1204.65 110.861 1201.84 113.895 1201.84 117.583C1201.84 121.271 1204.65 124.304 1208.24 124.668C1205.96 127.465 1206.12 131.592 1208.73 134.2C1211.34 136.808 1215.46 136.97 1218.26 134.687Z" fill="#FCBC08"/>
</svg>
