<svg width="650" height="597" viewBox="0 0 650 597" fill="none" xmlns="http://www.w3.org/2000/svg">
<path d="M117.123 130.366V141.781L117.289 144.427L117.62 148.563L117.785 151.045L117.62 153.361L116.793 155.511L115.635 156.669L113.815 156.835L111.168 157.165L102.235 156.669H99.588L90.8203 157.331H88.1734L85.8574 156.835L84.8649 155.511L84.534 153.195L83.8723 142.442L83.7069 139.795L84.0377 129.043V126.396L83.7069 115.808V113.492L83.0451 112.169L81.2254 111.507H77.2551L70.638 112.003L67.9911 112.169L54.7569 111.838L45.8237 111.342L43.6731 111.507L42.1843 112.003L41.3571 113.492L41.1917 115.808L41.3571 126.396V129.043L41.0263 139.795L41.1917 142.442L41.8534 149.556V153.361L41.1917 155.677L39.7029 157L37.5523 157.496L35.0709 157.662L32.5894 157.496L25.6414 156.835L22.9946 156.669L15.2194 157.165L12.5726 157H11.2491L9.42943 156.669L8.106 156.007L7.44429 155.18L7.11343 153.361L6.948 151.872V149.225L7.27886 144.262V130.366L7.60972 121.598V118.951L7.77514 110.184V107.537L7.27886 98.7691V96.1223L7.11343 87.3546V75.94L7.27886 73.2931L7.77514 64.5254L7.94057 61.8786L7.77514 53.1109L7.60972 50.464L6.78257 44.8394V41.3654L7.44429 39.3803L8.93314 38.2223L11.0837 37.726L13.5651 37.5606H16.0466L22.9946 37.8914H25.6414L32.2586 37.3951H34.9054L37.3869 37.5606L39.5374 37.8914L40.8609 39.2149L41.5226 41.3654L41.688 42.5234V45.0048L41.1917 52.4491L41.0263 55.096L40.8609 65.8489V79.414L41.0263 81.3991L41.5226 82.7226L42.3497 83.3843L44.004 83.5497L46.32 83.7151H48.636L54.9223 82.7226L57.4037 82.5571L67.9911 82.888L77.7514 83.5497H80.2329L81.3909 83.3843L83.2106 82.3917L83.8723 81.0683L84.0377 79.2486L84.6994 68.4957V65.8489L84.3686 55.096V52.4491L84.2031 41.6963L84.6994 39.0494L86.0229 37.5606L88.008 37.2297H90.6549L99.588 37.726H102.235L109.679 37.2297L112.326 37.3951H113.815L115.965 37.726L117.289 39.0494L117.951 41.3654V43.8469L117.454 50.464L117.289 53.1109L117.785 61.8786V64.5254L117.454 73.2931V75.94L118.116 84.7077V87.3546L117.454 96.1223V98.7691L117.123 107.537V110.184L117.289 118.951V121.598L117.123 130.366ZM380.378 140.953V141.946L379.055 143.269L376.077 145.916L374.092 147.405L370.949 149.721L368.964 151.045L365.655 152.864L363.505 154.022L359.7 155.842L357.218 156.669L354.406 157.496L351.594 157.993L347.458 158.82L341.668 159.481L338.69 159.647L334.555 159.978H325.952L323.14 159.812L320.328 159.481L317.516 158.985L314.703 158.323L312.222 157.496L304.778 155.511L301.138 154.188L298.988 153.195L295.844 151.375L293.859 149.887L291.709 148.398L289.393 146.909L285.092 143.269L283.106 141.284L281.287 139.134L279.467 136.652L277.978 134.336L276.655 132.02L275.497 129.704L273.842 126.23L271.361 119.282L270.203 115.974L268.549 111.011L268.218 108.529L268.052 104.725L268.218 102.243L268.383 99.5963V96.784L268.714 91.1594L268.88 88.5126L269.376 86.0311L270.038 82.3917L270.699 79.9103L271.526 77.4289L272.354 75.1129L273.512 71.8043L274.67 69.4883L275.828 67.0069L277.151 64.5254L278.64 62.044L280.129 59.728L281.783 57.5774L283.603 55.2614L285.588 53.1109L287.573 51.2911L289.724 49.4714L291.709 47.8171L297.002 44.1777L299.153 42.8543L301.469 41.5309L306.432 39.2149L309.244 38.2223L311.891 37.3951L317.516 36.0717L320.328 35.5754L323.14 35.2446L328.268 34.9137L331.908 34.5829L334.389 34.7483L338.029 34.9137L344.15 35.7408L346.466 36.2371L350.27 36.8989L356.06 38.5531L358.376 39.5457L362.016 41.6963L364.332 43.0197L368.633 45.9974L373.761 49.6368L375.581 50.9603L376.574 51.7874L377.732 52.9454L378.062 54.2688L377.897 55.5923L376.904 56.9157L375.416 58.7354L373.596 60.5551L371.776 62.2094L369.956 63.6983L368.137 65.518L365.324 68.8266L363.505 70.8117L362.678 71.6389L361.189 72.9623L360.031 73.4586L358.873 73.624L357.715 73.2931L355.895 72.3006L352.752 69.9846L350.601 68.8266L346.962 67.1723L344.646 66.3451L341.006 65.3526L338.525 64.8563L334.389 64.5254H331.742L328.103 64.8563L325.456 65.518L321.817 66.676L319.335 67.6686L317.185 68.4957L313.876 70.15L311.56 71.8043L310.402 72.7969L308.417 74.9474L306.928 77.2634L305.77 79.414L304.612 81.73L303.62 84.2114L302.792 86.8583L302.296 89.6706L301.965 92.152L301.634 97.1149V99.7617L301.8 103.897L301.965 106.379L302.792 110.184L303.62 112.665L304.778 115.477L306.101 117.959L308.582 121.598L310.402 123.583L313.545 126.23L315.696 127.719L319.004 129.373L321.486 130.366L325.125 131.359L327.772 131.855L331.742 132.02H335.547L337.863 131.524L339.187 131.193L341.668 130.366L345.804 128.877L348.451 127.719L350.932 126.561L353.083 125.403L356.226 123.418L358.376 121.764L360.031 120.606L361.023 120.275L362.512 120.606L364.332 121.764L366.152 123.418L366.813 124.411L368.468 126.23L371.114 129.539L372.769 131.524L377.235 136.652L378.724 138.637L379.551 139.465L380.378 140.953ZM496.402 146.413L503.681 153.691L504.508 155.18L504.012 156.007L503.515 157L502.357 157.662H500.207L491.274 157H488.627L478.205 156.835H475.558L464.971 157.331L462.985 157.165L461.497 156.007L455.707 149.556L454.218 147.571L449.089 140.292L447.601 138.472L441.149 132.02L439.495 130.035L434.035 123.583L432.712 121.764L431.885 120.275L430.727 119.779L429.734 120.44L429.403 122.591V134.005L429.073 142.939V145.585L429.238 149.556V152.037L429.073 154.519L428.907 156.173L428.08 156.835L426.095 157.165L420.967 157.496H415.838L408.229 156.835L405.582 157L397.31 157.662L395.987 157.165L395.325 156.173L395.16 154.684L394.994 152.368V149.721L395.16 145.585L395.325 142.773L394.663 133.84V122.26L394.829 119.613L395.325 110.515L395.491 107.868V96.2877L395.16 87.3546V84.7077L395.491 75.6091V72.9623L395.16 52.4491V49.8023L395.656 40.8691L395.821 38.884L396.318 38.0568L397.972 37.726L400.453 37.8914L405.582 38.3877H408.229L415.838 37.726H418.485L426.095 38.2223L427.915 38.3877L428.742 38.884L429.238 40.2074L429.403 41.8617L429.238 44.0123L428.742 49.4714L428.576 52.1183L429.073 60.886V63.5329L429.238 72.3006L429.569 74.1203L430.892 74.4511L432.712 73.2931L437.84 66.1797L446.773 55.4269L451.902 48.3134L453.556 46.3283L459.346 39.7111L460.669 38.3877L462.324 38.0568L469.933 37.5606H472.58L482.671 38.2223L488.958 38.3877H491.605L497.891 38.2223L499.711 38.3877L500.538 39.0494L500.869 39.3803L500.703 39.8766L499.38 41.3654L493.093 48.3134L491.439 50.2986L485.649 57.9083L483.995 59.8934L477.543 67.0069L475.889 68.992L469.768 76.2709L468.114 78.256L462.158 85.5349L460.339 87.52L456.203 91.3249L454.383 93.31L453.556 94.3026L452.729 95.626L453.06 96.6186L454.218 98.1074L460.339 106.213L462.158 108.199L469.437 115.477L471.091 117.463L477.543 125.403L479.197 127.388L485.98 134.998L487.634 136.983L494.748 144.427L496.402 146.413ZM140.118 332.178L139.787 340.946L139.953 343.593L140.614 348.721L140.78 351.203L140.614 352.526L140.449 354.346L139.622 355.669L138.629 356.496L136.809 356.827L134.328 356.993H131.681L125.064 356.496L122.252 356.331H118.116L115.138 356.165L109.017 355.338L107.859 355.007L107.198 354.18L107.032 352.526L106.867 350.21L106.701 347.729L107.032 342.104V326.554L106.536 316.132V313.485L107.198 303.228V290.325L106.867 288.34L105.874 287.678H104.882L103.724 289.167L102.069 291.483L95.1214 299.423L85.0303 311.5L78.4131 319.771L76.9243 321.095L75.7663 321.591H74.4429L72.6231 321.26L70.638 320.764L68.8183 319.44L60.5469 309.515L54.426 301.409L52.7717 299.423L44.1694 289.829L42.0189 287.678L41.0263 288.009L40.6954 289.829L40.1991 300.251V302.897L40.8609 313.319V315.966L41.1917 326.388V329.035L41.0263 339.292V341.773L41.1917 346.736L41.0263 349.383L40.8609 352.195L40.53 354.346L39.8683 355.338L38.7103 355.669L34.4091 356.165L31.7623 356.331L25.3106 355.835L22.6637 356L14.7231 356.662H10.9183L8.93314 356.331L7.94057 355.338L7.60972 354.18L7.27886 352.526V348.721L7.60972 343.593V318.117L7.27886 309.349V306.702L7.44429 297.935L7.27886 295.288L6.78257 286.355V283.708L7.27886 274.94L7.44429 272.293L6.78257 263.525L6.948 260.879L7.60972 252.111V249.464L6.948 243.343V240.696L7.27886 238.546L7.94057 237.388L8.93314 236.561L10.2566 236.23L12.4071 236.064L15.2194 236.395L18.8589 237.222H21.5057L26.634 236.726L29.4463 236.395L31.9277 236.23L38.214 236.395H40.3646L42.1843 237.222L43.8386 239.042L49.6286 245.494L51.2829 247.644L56.0803 254.427L57.7346 256.577L63.1937 263.029L64.848 265.345L69.9763 271.797L71.6306 273.617L73.1194 274.444H74.7737L76.2626 273.617L77.7514 271.962L82.7143 265.345L84.3686 263.029L89.6623 256.577L91.3166 254.427L97.1066 247.975L98.7609 245.825L103.062 240.531L104.385 238.711L105.709 237.388L107.363 236.561L109.514 236.726L118.281 237.222L126.057 237.388H128.703L133.666 237.057L136.479 237.222L138.464 237.553L139.622 237.884L140.614 238.711L140.945 240.035L140.78 242.02L140.118 249.464L139.953 252.111L140.283 260.879V263.525L140.118 272.293V274.94L140.283 283.708V286.355L140.945 295.288V297.935L140.283 306.702V309.349L140.78 318.117V320.764L140.118 329.531V332.178ZM409.266 252.773L408.77 262.533L408.605 265.18V289.663L409.101 299.258V301.905L409.432 323.741V326.554L409.266 327.877L409.101 330.689L408.605 338.63L408.77 348.225L408.605 350.541L407.943 352.526L406.62 354.346L404.965 355.504L403.476 356L401.16 356.165L392.724 356.496L390.077 356.662L385.941 356.827H383.294L381.144 356.331L379.158 355.504L377.173 354.015L375.684 351.864L373.203 347.067L371.714 344.916L365.262 336.81L363.608 334.825L357.156 326.885L355.668 324.734L349.878 316.132L348.389 314.147L341.937 306.206L340.283 304.221L334.162 296.115L332.673 294.791L331.515 295.288L331.019 297.273L330.688 305.544V308.191L330.853 316.463V319.109L331.019 328.373V331.02L330.522 340.284L330.688 342.931L331.68 349.548L331.846 352.195L331.35 354.346L330.192 355.504L329.034 355.835L327.048 356.165L325.725 356.331L322.913 356.496L315.303 356.331H312.656L305.874 356.662H303.227L300.745 356.496L298.926 356.165L297.602 355.338L296.94 354.18L296.61 352.526L296.444 351.368V348.887L296.775 343.427L296.94 340.781L296.444 332.013V329.366L296.775 309.184L296.94 306.537L297.437 297.769L297.602 295.122V283.708L296.94 274.94V272.293L297.602 263.525L297.437 260.879L296.775 251.945L296.61 249.299V245.494L296.775 243.012L297.106 240.531L297.437 238.711L297.933 237.553L298.926 237.057L300.745 236.726L305.708 236.395L310.671 236.726H323.078L325.063 236.891L325.89 237.553L326.883 239.042L333.831 246.486L335.485 248.471L341.606 256.412L343.26 258.397L349.381 266.503L351.036 268.488L356.991 276.76L358.48 278.745L364.766 286.685L366.42 288.671L372.376 296.942L373.699 298.1L375.023 298.265L376.181 297.438V295.619L375.023 288.671L374.857 286.024L375.354 278.91V276.263L374.692 266.172V263.525L375.354 253.434L375.188 250.787L374.692 244.667V240.531L375.188 238.38L375.85 237.057L377.008 236.395L378.993 236.064H380.482L383.294 235.899L390.738 236.395H393.385L399.01 236.064L401.491 236.23L405.296 236.395L407.116 236.726L408.274 237.222L409.266 238.38L409.597 240.696L409.763 242.185L409.928 244.997L409.597 250.126L409.266 252.773ZM466.222 320.764L466.718 329.697V332.344L466.056 341.277V343.924L465.891 353.022V354.842L465.395 355.669L464.071 356.165L461.755 356.331L453.318 356.165H443.062L434.79 355.504L433.798 355.173L433.301 354.677V353.022L432.971 348.887V346.24L432.805 343.758V341.277L432.309 332.344L432.474 329.697L432.971 320.764L433.136 318.117L432.64 309.018V306.371L432.474 297.438V283.211L432.309 274.113V271.466L432.474 262.533V248.306L432.143 239.207L432.64 237.388L433.632 236.726L435.287 236.561H436.61L439.091 236.395L443.062 236.561H445.709L453.318 236.23H463.575L465.395 236.561L465.725 237.553L465.891 239.373L466.222 243.674L466.387 246.321V262.533L466.553 271.466V274.113L466.387 283.211V285.858L466.553 294.791V297.438L466.222 306.371V320.764ZM35.2363 524.561L35.0709 525.885L35.2363 526.712L36.8906 527.043L39.2066 527.208L45.4929 527.043H58.8926L67.3294 527.208H69.9763L89.3314 526.877L91.9783 526.712L97.4374 526.215H100.25L102.4 526.712L103.393 528.201L103.724 530.517L103.889 532.998L104.055 535.645V542.427L104.385 546.563L104.22 549.21L104.055 551.526L103.724 553.18L103.062 554.173L102.069 554.669L96.7757 555.496L94.4597 555.662L90.8203 555.496L88.3389 555.331L76.2626 554.669H66.9986L52.4409 555.496H28.4537L16.3774 555.331L7.11343 555L5.12829 554.835L3.97029 554.173L3.63943 553.18L3.474 551.361L3.80486 541.435V538.788L3.30857 528.697L3.474 526.05L3.97029 521.087L4.96286 516.124L5.45914 513.477L6.28629 510.665L7.11343 508.018L7.60972 506.695L8.76771 504.048L10.0911 501.897L12.9034 498.92L14.7231 497.265L17.7009 494.949L19.686 493.626L22.9946 491.475L25.1451 490.317L28.6191 488.663L31.1006 487.836L35.2363 486.513L38.0486 485.851L40.8609 485.355L43.5077 485.024L51.9446 484.527L53.4334 484.362L56.4111 484.197L60.5469 484.031L63.5246 483.369L64.848 482.708L67.3294 481.219L68.4874 480.061L69.9763 477.91L70.9689 474.436V470.797L70.638 469.473L69.8109 466.827L69.1491 465.669L67.4949 463.683L65.3443 462.691L61.7049 461.698L59.3889 461.367L56.9074 461.202H54.426L52.11 461.367L49.794 461.864L46.32 463.022L44.1694 464.18L43.1769 464.841L41.5226 466.661L40.6954 467.654L39.5374 470.135L38.7103 472.451L37.2214 473.444L34.74 474.105H33.2511L30.4389 474.271L23.4909 473.94H16.5429L13.7306 473.775L9.42943 473.278L7.27886 472.947L6.12086 472.286L5.62457 471.459V468.646L5.95543 466.165L6.28629 464.676L6.78257 462.029L7.11343 460.871L7.94057 458.39L9.59486 455.247L10.9183 452.931L12.4071 450.78L14.2269 448.629L16.212 446.81L18.1971 445.155L21.3403 443.005L23.6563 441.681L28.6191 439.035L31.4314 437.877L34.0783 437.049L37.7177 436.222L40.3646 435.726L42.846 435.23L45.162 434.899L48.8014 434.733L51.4483 434.568H56.9074L60.7123 434.403H63.3591L65.8406 434.568L68.322 435.064L71.796 435.891L74.2774 436.719L79.5711 438.373L82.0526 439.2L84.534 440.193L88.008 441.847L90.324 443.17L92.4746 444.99L94.6251 447.141L96.4449 449.291L98.0992 451.442L100.25 454.419L101.408 456.735L102.566 459.217L103.393 461.698L104.22 464.014L104.716 466.496L105.213 470.466V472.947L105.047 476.587L104.716 478.903L103.889 482.708L103.227 485.189L102.235 488.001L101.077 490.483L99.2571 493.626L97.7683 495.777L95.6177 498.589L93.798 500.409L91.1511 502.89L89.0006 504.213L85.5266 506.033L83.0451 507.026L80.2329 507.853L77.586 508.68L74.7737 509.176L72.1269 509.673L68.322 510.003L65.6751 510.334L62.8629 510.831L60.216 511.327L56.2457 511.658L53.4334 511.823H52.11L49.1323 511.989H47.8089L44.9966 512.485L43.6731 512.981L41.1917 514.139L40.1991 514.966L38.3794 516.786L37.056 518.771L36.0634 521.087L35.7326 522.411L35.2363 524.561ZM283.379 524.561L283.214 525.885L283.379 526.712L285.033 527.043L287.349 527.208L293.636 527.043H307.035L315.472 527.208H318.119L337.474 526.877L340.121 526.712L345.58 526.215H348.393L350.543 526.712L351.536 528.201L351.867 530.517L352.032 532.998L352.197 535.645V542.427L352.528 546.563L352.363 549.21L352.197 551.526L351.867 553.18L351.205 554.173L350.212 554.669L344.919 555.496L342.603 555.662L338.963 555.496L336.482 555.331L324.405 554.669H315.141L300.584 555.496H276.597L264.52 555.331L255.256 555L253.271 554.835L252.113 554.173L251.782 553.18L251.617 551.361L251.948 541.435V538.788L251.451 528.697L251.617 526.05L252.113 521.087L253.106 516.124L253.602 513.477L254.429 510.665L255.256 508.018L255.753 506.695L256.911 504.048L258.234 501.897L261.046 498.92L262.866 497.265L265.844 494.949L267.829 493.626L271.137 491.475L273.288 490.317L276.762 488.663L279.243 487.836L283.379 486.513L286.191 485.851L289.004 485.355L291.651 485.024L300.087 484.527L301.576 484.362L304.554 484.197L308.69 484.031L311.667 483.369L312.991 482.708L315.472 481.219L316.63 480.061L318.119 477.91L319.112 474.436V470.797L318.781 469.473L317.954 466.827L317.292 465.669L315.638 463.683L313.487 462.691L309.848 461.698L307.532 461.367L305.05 461.202H302.569L300.253 461.367L297.937 461.864L294.463 463.022L292.312 464.18L291.32 464.841L289.665 466.661L288.838 467.654L287.68 470.135L286.853 472.451L285.364 473.444L282.883 474.105H281.394L278.582 474.271L271.634 473.94H264.686L261.873 473.775L257.572 473.278L255.422 472.947L254.264 472.286L253.767 471.459V468.646L254.098 466.165L254.429 464.676L254.925 462.029L255.256 460.871L256.083 458.39L257.738 455.247L259.061 452.931L260.55 450.78L262.37 448.629L264.355 446.81L266.34 445.155L269.483 443.005L271.799 441.681L276.762 439.035L279.574 437.877L282.221 437.049L285.861 436.222L288.507 435.726L290.989 435.23L293.305 434.899L296.944 434.733L299.591 434.568H305.05L308.855 434.403H311.502L313.983 434.568L316.465 435.064L319.939 435.891L322.42 436.719L327.714 438.373L330.195 439.2L332.677 440.193L336.151 441.847L338.467 443.17L340.617 444.99L342.768 447.141L344.588 449.291L346.242 451.442L348.393 454.419L349.551 456.735L350.709 459.217L351.536 461.698L352.363 464.014L352.859 466.496L353.355 470.466V472.947L353.19 476.587L352.859 478.903L352.032 482.708L351.37 485.189L350.378 488.001L349.22 490.483L347.4 493.626L345.911 495.777L343.761 498.589L341.941 500.409L339.294 502.89L337.143 504.213L333.669 506.033L331.188 507.026L328.376 507.853L325.729 508.68L322.917 509.176L320.27 509.673L316.465 510.003L313.818 510.334L311.006 510.831L308.359 511.327L304.389 511.658L301.576 511.823H300.253L297.275 511.989H295.952L293.139 512.485L291.816 512.981L289.335 514.139L288.342 514.966L286.522 516.786L285.199 518.771L284.206 521.087L283.875 522.411L283.379 524.561Z" fill="black"/>
<path d="M465.718 512.981L465.883 515.793V518.606L465.718 521.418L465.552 524.065L464.89 527.704L464.229 530.02L462.574 533.329L461.251 535.645L459.762 537.961L456.123 542.262L454.138 544.082L449.175 547.887L446.693 549.375L444.046 550.864L441.4 552.022L438.918 553.18L435.61 554.338L433.128 555.165L430.316 555.993L427.669 556.489L424.03 556.654L421.714 556.82L418.074 556.654H415.758L412.119 556.323L409.472 556.158L406.66 555.827L401.366 555.496L398.719 555.165L394.749 554.338L392.267 553.677L389.786 552.684L387.47 551.526L383.996 549.541L381.845 548.052L379.198 545.901L377.379 544.247L375.063 541.435L373.408 539.45L371.92 536.968L370.596 534.652L369.273 531.344L368.611 529.028L367.784 525.388L367.453 522.741L367.288 519.929L367.618 517.448L368.776 516.29L370.762 515.959L374.566 515.628L382.176 516.124H384.823L392.267 515.628H396.238L398.388 516.124L399.546 517.117L400.373 519.267L401.366 522.08L403.02 524.561L404.84 526.381L406.99 527.87L409.472 528.697L411.788 529.359L415.427 529.524H417.743L421.383 529.359L423.864 528.697L426.511 527.539L429.158 526.05L431.308 523.734L432.466 521.087L432.963 518.44L433.128 515.463L432.466 512.816L432.136 511.823L430.647 509.673L428.827 507.853L426.676 506.199L424.03 505.041L421.383 504.379L417.578 503.883L415.096 503.717L409.968 504.048L406.329 504.379L395.245 503.717H392.598L372.912 504.048L370.762 503.552L369.604 502.228L369.438 500.078L369.273 490.152V487.505L369.438 477.579V474.933L368.942 465.007V462.36L369.438 452.434L369.273 449.622L368.776 443.997L368.611 441.351L368.776 439.862L369.273 437.38L370.762 436.057L372.747 435.726H376.221L382.507 436.222H385.154L394.749 435.726L397.396 435.561L406.99 435.395L421.879 436.388L431.474 436.057H446.032L450.994 435.726L455.957 436.057L457.777 436.388L458.935 436.884L459.762 437.877L460.093 439.862L460.258 441.02L460.424 443.501L460.093 448.464V453.758L459.928 456.405L459.431 459.217L459.1 461.698L457.942 463.022L455.792 463.353L454.468 463.518H451.822L444.874 463.683H442.227L428.662 463.518H417.743L409.968 463.022H407.156L404.344 463.187L401.862 463.849L400.539 465.172L400.208 467.157L400.042 472.12L400.373 474.436L401.366 476.421L403.351 477.579L405.667 477.91L414.931 477.414H417.743L421.879 477.745L427.173 478.076L429.654 478.407L433.79 478.903L439.084 479.895L441.565 480.723L445.039 482.211L447.52 483.535L450.002 485.024L452.152 486.513L456.784 490.317L459.1 493.13L460.589 495.115L461.747 497.596L462.74 500.243L464.063 503.883L464.56 506.529L465.387 510.334L465.718 512.981Z" fill="#AD2831"/>
<path d="M555.504 78.5037L511 103.5L555.504 128.496L580.5 173L605.496 128.496L650 103.5L605.496 78.5037L580.5 34L555.504 78.5037Z" fill="#6C92EB"/>
<path d="M174.5 563C164.691 563 156.624 555.543 155.658 545.99C148.219 552.062 137.242 551.63 130.306 544.694C123.37 537.758 122.938 526.781 129.01 519.342C119.457 518.376 112 510.309 112 500.5C112 490.691 119.457 482.624 129.011 481.658C122.938 474.219 123.37 463.242 130.306 456.306C137.242 449.37 148.219 448.938 155.658 455.01C156.624 445.457 164.691 438 174.5 438C184.309 438 192.376 445.457 193.342 455.01C200.781 448.938 211.758 449.37 218.694 456.306C225.63 463.242 226.062 474.219 219.99 481.658C229.543 482.624 237 490.691 237 500.5C237 510.309 229.543 518.376 219.99 519.342C226.062 526.781 225.63 537.758 218.694 544.694C211.758 551.63 200.781 552.062 193.342 545.99C192.376 555.543 184.309 563 174.5 563Z" fill="#6C92EB"/>
<path d="M210.586 238.33C212.761 233.779 219.239 233.779 221.414 238.33L274.251 348.913C276.154 352.896 273.251 357.5 268.837 357.5H163.163C158.749 357.5 155.846 352.895 157.749 348.913L210.586 238.33Z" fill="#4C956C"/>
<path fill-rule="evenodd" clip-rule="evenodd" d="M617.837 357.5H632.837C637.251 357.5 640.154 352.896 638.251 348.913L585.414 238.33C583.239 233.779 576.761 233.779 574.586 238.331L572.5 242.697L623.251 348.913C625.154 352.896 622.251 357.5 617.837 357.5Z" fill="#FCBC08"/>
<path d="M206.969 303.969L190 313.5L206.969 323.031L216.5 340L226.031 323.031L243 313.5L226.031 303.969L216.5 287L206.969 303.969Z" fill="#E7E7E7"/>
<path fill-rule="evenodd" clip-rule="evenodd" d="M206.414 39.3305C204.239 34.7795 197.761 34.7795 195.586 39.3305L142.749 149.913C140.846 153.896 143.749 158.5 148.163 158.5H253.837C258.251 158.5 261.154 153.896 259.251 149.913L206.414 39.3305ZM181.11 94.8904L201 100.473L220.89 94.8904L215.307 114.781L220.89 134.671L201 129.088L181.11 134.671L186.692 114.781L181.11 94.8904Z" fill="#AD2831"/>
<path fill-rule="evenodd" clip-rule="evenodd" d="M557.413 238.33C555.239 233.779 548.761 233.78 546.586 238.331L493.749 348.913C491.846 352.896 494.749 357.5 499.162 357.5H604.837C609.25 357.5 612.154 352.896 610.251 348.913L557.413 238.33ZM544.415 331.604C544.779 335.196 547.812 338 551.5 338C555.188 338 558.221 335.196 558.585 331.604C561.382 333.887 565.509 333.725 568.117 331.117C570.725 328.509 570.887 324.382 568.604 321.585C572.196 321.221 575 318.188 575 314.5C575 310.812 572.196 307.779 568.604 307.415C570.887 304.618 570.725 300.491 568.117 297.883C565.509 295.275 561.382 295.113 558.585 297.396C558.221 293.804 555.188 291 551.5 291C547.812 291 544.779 293.804 544.415 297.396C541.618 295.113 537.491 295.275 534.883 297.883C532.275 300.491 532.113 304.618 534.396 307.415C530.804 307.779 528 310.812 528 314.5C528 318.188 530.804 321.221 534.396 321.585C532.113 324.382 532.275 328.509 534.883 331.117C537.491 333.725 541.618 333.887 544.415 331.604Z" fill="#FCBC08"/>
</svg>
