<svg width="87" height="88" viewBox="0 0 87 88" fill="none" xmlns="http://www.w3.org/2000/svg">
<path d="M43.5 87.4307C36.6731 87.4307 31.0583 82.2409 30.3857 75.5914C25.2082 79.8177 17.5682 79.5172 12.7409 74.6898C7.91351 69.8624 7.61299 62.2225 11.8393 57.045C5.18977 56.3723 -2.98413e-07 50.7576 0 43.9307C5.40326e-07 37.1037 5.18978 31.489 11.8393 30.8164C7.613 25.6388 7.91352 17.9989 12.7409 13.1715C17.5682 8.34417 25.2082 8.04365 30.3857 12.2699C31.0583 5.62043 36.6731 0.430665 43.5 0.430664C50.3269 0.430664 55.9417 5.62043 56.6143 12.2699C61.7918 8.04364 69.4318 8.34416 74.2591 13.1715C79.0865 17.9989 79.387 25.6388 75.1607 30.8164C81.8102 31.489 87 37.1038 87 43.9307C87 50.7576 81.8102 56.3723 75.1607 57.045C79.387 62.2225 79.0865 69.8625 74.2592 74.6898C69.4318 79.5172 61.7918 79.8177 56.6143 75.5914C55.9417 82.2409 50.3269 87.4307 43.5 87.4307Z" fill="#FED05C"/>
</svg>
